<svg width="200" height="107" viewBox="0 0 200 107" fill="none" xmlns="http://www.w3.org/2000/svg">
<path fill-rule="evenodd" clip-rule="evenodd" d="M0 0.897949V13.0911H0.0693878C2.81898 13.0911 5.45595 14.1834 7.40021 16.1277C9.34446 18.0719 10.4367 20.7089 10.4367 23.4585C10.4367 26.2081 9.34446 28.8451 7.40021 30.7893C5.45595 32.7336 2.81898 33.8258 0.0693878 33.8258C0.047619 33.8258 0.0231293 33.8014 0 33.8014V42.815H0.0693878C5.78367 42.815 10.434 47.4435 10.434 53.1823C10.434 58.8966 5.78367 63.5456 0.0693878 63.5456C0.047619 63.5456 0.0231293 63.5252 0 63.5252V72.5374H0.0693878C5.78367 72.5374 10.434 77.1673 10.434 82.9048C10.434 88.6177 5.78367 93.2707 0.0693878 93.2707H0V105.444H198.725V93.2707C195.976 93.2704 193.339 92.1779 191.395 90.2337C189.451 88.2895 188.359 85.6527 188.359 82.9034C188.357 81.5414 188.624 80.1925 189.145 78.9339C189.665 77.6752 190.429 76.5316 191.392 75.5686C192.355 74.6055 193.498 73.8419 194.757 73.3216C196.016 72.8012 197.365 72.5343 198.727 72.536V63.5456C195.978 63.5459 193.341 62.4543 191.397 60.5109C189.453 58.5674 188.36 55.9313 188.359 53.1823C188.357 51.8203 188.624 50.4713 189.144 49.2126C189.665 47.9538 190.428 46.8102 191.391 45.8471C192.354 44.884 193.498 44.1204 194.757 43.6001C196.016 43.0798 197.365 42.813 198.727 42.815V33.8258C195.977 33.8258 193.34 32.7336 191.396 30.7893C189.451 28.8451 188.359 26.2081 188.359 23.4585C188.357 22.0965 188.624 20.7476 189.145 19.489C189.665 18.2303 190.429 17.0867 191.392 16.1237C192.355 15.1606 193.498 14.397 194.757 13.8767C196.016 13.3563 197.365 13.0894 198.727 13.0911V0.897949H0Z" fill="url(#paint0_linear)"/>
<path fill-rule="evenodd" clip-rule="evenodd" d="M64.7563 0.897949L38.5073 98.5401H30.4624L56.7073 0.897949H64.7563Z" fill="#63A5FD"/>
<path fill-rule="evenodd" clip-rule="evenodd" d="M150.705 0.897949L145.183 18.1088H137.137L142.657 0.897949H150.705Z" fill="#BED9FD"/>
<path style="mix-blend-mode:overlay" opacity="0.216" fill-rule="evenodd" clip-rule="evenodd" d="M156.402 0.897949L128.034 105.444H153.014L181.383 0.897949H156.402Z" fill="url(#paint1_linear)"/>
<path style="mix-blend-mode:overlay" opacity="0.216" fill-rule="evenodd" clip-rule="evenodd" d="M48.7402 0.897949L20.377 105.444H28.4205L56.7892 0.897949H48.7402Z" fill="url(#paint2_linear)"/>
<path fill-rule="evenodd" clip-rule="evenodd" d="M176.774 98.5388H21.9457C21.9457 97.9457 21.8289 97.3583 21.6019 96.8103C21.3749 96.2622 21.0422 95.7643 20.6227 95.3448C20.2033 94.9254 19.7053 94.5927 19.1573 94.3657C18.6093 94.1387 18.0219 94.0218 17.4287 94.0218V14.381C18.0219 14.381 18.6093 14.2642 19.1573 14.0372C19.7053 13.8102 20.2033 13.4775 20.6227 13.058C21.0422 12.6386 21.3749 12.1406 21.6019 11.5926C21.8289 11.0446 21.9457 10.4572 21.9457 9.86401H176.773C176.773 11.062 177.249 12.2109 178.096 13.058C178.943 13.9051 180.092 14.381 181.29 14.381V94.0218C180.092 94.0222 178.943 94.4982 178.096 95.3452C177.249 96.1923 176.773 97.341 176.773 98.5388" fill="#1766DC"/>
<path d="M62.4954 40.7386L54.3059 31.473V40.7386H49V20.2614H54.3059V29.0622L62.2647 20.2614H68.4645L59.4964 29.9917L68.7817 40.7386H62.4954Z" fill="#1D53D8"/>
<path d="M77.7347 41C74.7934 41 72.5538 40.2448 71.0159 38.7344C69.4972 37.2241 68.7378 35.0166 68.7378 32.112V20.2614H73.9283V32.3154C73.9283 33.787 74.2552 34.9198 74.9088 35.7137C75.5624 36.5076 76.5044 36.9046 77.7347 36.9046C78.9651 36.9046 79.9071 36.5076 80.5607 35.7137C81.2143 34.9198 81.5411 33.787 81.5411 32.3154V20.2614H86.7605V32.112C86.7605 34.9972 85.9819 37.2047 84.4248 38.7344C82.8868 40.2448 80.6568 41 77.7347 41Z" fill="#1D53D8"/>
<path d="M90.3396 20.2614H100.173C102.422 20.2614 104.171 20.8423 105.421 22.0041C106.671 23.1466 107.295 24.7441 107.295 26.7967C107.295 28.8299 106.661 30.4274 105.392 31.5892C104.143 32.751 102.403 33.3319 100.173 33.3319H95.6455V40.7386H90.3396V20.2614ZM99.4519 29.3237C100.432 29.3237 101.153 29.1203 101.615 28.7137C102.095 28.3071 102.336 27.6777 102.336 26.8257C102.336 25.9737 102.095 25.3444 101.615 24.9378C101.153 24.5118 100.432 24.2988 99.4519 24.2988H95.6455V29.3237H99.4519Z" fill="#1D53D8"/>
<path d="M119.571 41C117.495 41 115.688 40.574 114.15 39.722C112.631 38.8506 111.459 37.6307 110.632 36.0622C109.805 34.4744 109.392 32.6155 109.392 30.4855C109.392 28.3555 109.805 26.5062 110.632 24.9378C111.459 23.3499 112.631 22.13 114.15 21.278C115.688 20.426 117.495 20 119.571 20C121.648 20 123.445 20.426 124.964 21.278C126.502 22.13 127.674 23.3499 128.482 24.9378C129.308 26.5062 129.722 28.3555 129.722 30.4855C129.722 32.6155 129.308 34.4744 128.482 36.0622C127.655 37.6307 126.473 38.8506 124.935 39.722C123.416 40.574 121.628 41 119.571 41ZM119.571 36.9046C121.109 36.9046 122.311 36.3624 123.176 35.278C124.041 34.1743 124.473 32.5768 124.473 30.4855C124.473 28.3942 124.031 26.8064 123.147 25.722C122.282 24.6376 121.09 24.0954 119.571 24.0954C118.033 24.0954 116.832 24.6376 115.967 25.722C115.102 26.787 114.669 28.3748 114.669 30.4855C114.669 32.5961 115.102 34.1936 115.967 35.278C116.832 36.3624 118.033 36.9046 119.571 36.9046Z" fill="#1D53D8"/>
<path d="M151 20.2614V40.7386H147.078L137.793 29.0332V40.7386H132.862V20.2614H136.726L146.04 31.9668V20.2614H151Z" fill="#1D53D8"/>
<path d="M62.4954 38.7386L54.3059 29.473V38.7386H49V18.2614H54.3059V27.0622L62.2647 18.2614H68.4645L59.4964 27.9917L68.7817 38.7386H62.4954Z" fill="white"/>
<path d="M77.7347 39C74.7934 39 72.5538 38.2448 71.0159 36.7344C69.4972 35.2241 68.7378 33.0166 68.7378 30.112V18.2614H73.9283V30.3154C73.9283 31.787 74.2552 32.9198 74.9088 33.7137C75.5624 34.5076 76.5044 34.9046 77.7347 34.9046C78.9651 34.9046 79.9071 34.5076 80.5607 33.7137C81.2143 32.9198 81.5411 31.787 81.5411 30.3154V18.2614H86.7605V30.112C86.7605 32.9972 85.9819 35.2047 84.4248 36.7344C82.8868 38.2448 80.6568 39 77.7347 39Z" fill="white"/>
<path d="M90.3396 18.2614H100.173C102.422 18.2614 104.171 18.8423 105.421 20.0041C106.671 21.1466 107.295 22.7441 107.295 24.7967C107.295 26.8299 106.661 28.4274 105.392 29.5892C104.143 30.751 102.403 31.3319 100.173 31.3319H95.6455V38.7386H90.3396V18.2614ZM99.4519 27.3237C100.432 27.3237 101.153 27.1203 101.615 26.7137C102.095 26.3071 102.336 25.6777 102.336 24.8257C102.336 23.9737 102.095 23.3444 101.615 22.9378C101.153 22.5118 100.432 22.2988 99.4519 22.2988H95.6455V27.3237H99.4519Z" fill="white"/>
<path d="M119.571 39C117.495 39 115.688 38.574 114.15 37.722C112.631 36.8506 111.459 35.6307 110.632 34.0622C109.805 32.4744 109.392 30.6155 109.392 28.4855C109.392 26.3555 109.805 24.5062 110.632 22.9378C111.459 21.3499 112.631 20.13 114.15 19.278C115.688 18.426 117.495 18 119.571 18C121.648 18 123.445 18.426 124.964 19.278C126.502 20.13 127.674 21.3499 128.482 22.9378C129.308 24.5062 129.722 26.3555 129.722 28.4855C129.722 30.6155 129.308 32.4744 128.482 34.0622C127.655 35.6307 126.473 36.8506 124.935 37.722C123.416 38.574 121.628 39 119.571 39ZM119.571 34.9046C121.109 34.9046 122.311 34.3624 123.176 33.278C124.041 32.1743 124.473 30.5768 124.473 28.4855C124.473 26.3942 124.031 24.8064 123.147 23.722C122.282 22.6376 121.09 22.0954 119.571 22.0954C118.033 22.0954 116.832 22.6376 115.967 23.722C115.102 24.787 114.669 26.3748 114.669 28.4855C114.669 30.5961 115.102 32.1936 115.967 33.278C116.832 34.3624 118.033 34.9046 119.571 34.9046Z" fill="white"/>
<path d="M151 18.2614V38.7386H147.078L137.793 27.0332V38.7386H132.862V18.2614H136.726L146.04 29.9668V18.2614H151Z" fill="white"/>
<path fill-rule="evenodd" clip-rule="evenodd" d="M69.5253 59.2381V49.1918H65.7144V46.5006H76.7008V49.1918H72.8886V59.2381H69.528H69.5253ZM83.6369 59.4013C81.7947 59.4013 80.3933 58.9306 79.4369 57.9918C78.4791 57.053 78.0001 55.6789 78.0001 53.8721V46.5006H81.2519V53.9972C81.2519 54.9142 81.4559 55.619 81.8668 56.1129C82.275 56.6068 82.8668 56.853 83.6369 56.853C84.4083 56.853 84.9974 56.6068 85.4083 56.1129C85.8165 55.619 86.0219 54.9142 86.0219 53.9986V46.5006H89.2927V53.8721C89.2927 55.6666 88.8069 57.0367 87.8369 57.9823C86.8682 58.9278 85.4682 59.4013 83.6369 59.4013ZM103.928 59.2381H99.9893L94.8573 53.4748V59.2381H91.5321V46.5006H94.8573V51.9727L99.8437 46.4993H103.728L98.109 52.551L103.928 59.2367V59.2381ZM113.558 59.2381L112.419 56.6H106.782L105.644 59.2381H102.301L108.246 46.5006H110.883L116.846 59.2381H113.558ZM107.848 54.1061H111.354L109.6 50.0244L107.848 54.1061ZM129.061 59.2381H125.411L123.207 55.1727C122.931 54.7034 122.491 54.468 121.887 54.468H120.876V59.2381H117.606V46.5006H123.676C125.218 46.5006 126.377 46.834 127.154 47.5034C127.931 48.1714 128.32 49.1374 128.32 50.4027C128.32 51.3659 128.055 52.1823 127.524 52.8517C126.993 53.5183 126.248 53.9673 125.285 54.1972C126.019 54.3537 126.603 54.8299 127.037 55.6244L129.06 59.2381H129.061ZM123.153 51.9741C123.887 51.9741 124.415 51.8598 124.733 51.6312C125.053 51.4027 125.212 51.0285 125.212 50.5115C125.212 49.9809 125.053 49.6 124.733 49.3632C124.415 49.1292 123.889 49.0122 123.153 49.0122H120.84V51.9727H123.153V51.9741ZM38.2967 75.3605H39.4369V83.3197H38.1498V78.0585L36.0491 82.0326H35.0777L32.9661 78.1142L32.9784 83.321H31.6899V75.3591H32.8423L35.5757 80.5646L38.2967 75.3591V75.3605ZM41.1648 83.3197V75.3605H46.4954V76.5115H42.5879V78.702H46.2695V79.8421H42.5879V82.1687H46.4954V83.321H41.1648V83.3197ZM54.4899 83.3197H52.909L51.543 80.7795C51.4404 80.5658 51.2746 80.3887 51.0682 80.2721C50.8462 80.1668 50.6021 80.1164 50.3566 80.1251H49.2519V83.321H47.8178V75.3591H51.3416C52.2437 75.3591 52.9308 75.5605 53.4015 75.9632C53.8723 76.3659 54.1076 76.9483 54.1076 77.7088C54.1076 78.3183 53.9362 78.8204 53.5933 79.2163C53.2518 79.6108 52.7675 79.8693 52.143 79.9891C52.5648 80.102 52.9035 80.4 53.1593 80.8816L54.4927 83.321L54.4899 83.3197ZM51.1362 79.0068C51.6859 79.0068 52.0886 78.9034 52.3444 78.6965C52.6001 78.4897 52.728 78.1714 52.728 77.7414C52.728 77.3061 52.6001 76.9877 52.3444 76.7891C52.0886 76.5877 51.6859 76.4897 51.1362 76.4897H49.2396V79.0068H51.1362ZM59.1648 83.4217C58.3825 83.4217 57.6995 83.2544 57.1158 82.9197C56.5354 82.5881 56.0673 82.0906 55.7716 81.4911C55.4587 80.8734 55.3035 80.1551 55.3035 79.3346C55.3035 78.5142 55.46 77.7972 55.7716 77.1836C56.0845 76.57 56.5335 76.0952 57.1158 75.7605C57.6995 75.4258 58.3811 75.2571 59.1648 75.2571C59.6995 75.2571 60.2042 75.3401 60.6791 75.5061C61.1525 75.6721 61.5512 75.9047 61.8763 76.2068L61.3893 77.268C61.0667 77.0047 60.705 76.7935 60.3172 76.6421C59.9557 76.5087 59.5732 76.4414 59.1879 76.4435C58.4206 76.4435 57.8274 76.6925 57.4097 77.1891C56.992 77.6857 56.7838 78.4 56.7838 79.3346C56.7838 80.2748 56.992 80.9945 57.4097 81.4911C57.8274 81.9877 58.4206 82.2367 59.1879 82.2367C59.5865 82.2367 59.9634 82.17 60.3172 82.0394C60.6709 81.9074 61.0287 81.6993 61.3893 81.4122L61.875 82.4734C61.5291 82.7879 61.1213 83.0265 60.6777 83.1741C60.191 83.3415 59.6794 83.4252 59.1648 83.4217ZM68.7185 75.3591H70.1416V83.321H68.7185V79.8639H64.6423V83.3197H63.2083V75.3578H64.6423V78.6898H68.7185V75.3578V75.3591ZM77.9444 83.321L77.143 81.4571H73.2695L72.4668 83.321H71.0001L74.6015 75.3591H75.7879L79.3906 83.321H77.9444ZM73.7444 80.3278H76.6573L75.2015 76.9401L73.7444 80.3278ZM85.5893 75.3591H86.9566V83.321H85.8614L81.592 77.7646V83.321H80.2369V75.3591H81.3212L85.5893 80.9034V75.3605V75.3591ZM88.6723 75.3591H91.6083C92.9117 75.3591 93.9212 75.7074 94.641 76.404C95.3593 77.1006 95.7185 78.0775 95.7185 79.3346C95.7185 80.5918 95.3593 81.57 94.641 82.2707C93.9212 82.97 92.9117 83.321 91.6083 83.321H88.6723V75.3591ZM91.5185 82.1346C93.3471 82.1346 94.2627 81.2013 94.2627 79.3346C94.2627 77.4748 93.3471 76.5455 91.5185 76.5455H90.1294V82.1346H91.5172H91.5185ZM97.1865 83.321V75.3591H98.6437V83.321H97.1879H97.1865ZM103.059 83.4217C102.478 83.4261 101.899 83.3426 101.343 83.1741C100.85 83.0301 100.39 82.7922 99.9879 82.4734L100.474 81.4122C100.857 81.7061 101.263 81.9197 101.687 82.0557C102.113 82.1918 102.574 82.2598 103.071 82.2598C103.621 82.2598 104.044 82.1632 104.342 81.9714C104.481 81.8885 104.596 81.7699 104.674 81.6278C104.752 81.4858 104.791 81.3253 104.787 81.1632C104.79 81.0213 104.753 80.8813 104.68 80.7595C104.607 80.6376 104.501 80.5389 104.374 80.4748C104.099 80.317 103.642 80.1659 103.003 80.0231C102.449 79.9141 101.908 79.7477 101.388 79.5265C100.974 79.3387 100.661 79.0965 100.45 78.804C100.24 78.5102 100.135 78.1374 100.135 77.6857C100.135 77.219 100.263 76.8013 100.519 76.4326C100.774 76.0639 101.136 75.7755 101.603 75.5687C102.113 75.3526 102.664 75.2464 103.218 75.2571C103.776 75.2571 104.306 75.3428 104.81 75.5115C105.313 75.6816 105.728 75.9129 106.052 76.2054L105.566 77.2666C104.859 76.7034 104.075 76.4204 103.218 76.4204C102.705 76.4204 102.301 76.5238 102.003 76.7319C101.861 76.8258 101.745 76.9545 101.668 77.1058C101.59 77.2571 101.552 77.4258 101.558 77.5959C101.558 77.9034 101.689 78.1401 101.953 78.3061C102.216 78.4721 102.664 78.6272 103.297 78.7687C103.966 78.9197 104.51 79.0884 104.929 79.2721C105.346 79.4571 105.665 79.6925 105.889 79.9782C106.11 80.2639 106.221 80.6258 106.221 81.0625C106.221 81.536 106.095 81.9523 105.842 82.3102C105.591 82.668 105.226 82.9428 104.747 83.1346C104.27 83.3251 103.706 83.4217 103.06 83.4217H103.059ZM107.565 83.321V75.3591H112.895V76.5115H108.988V78.702H112.67V79.8421H108.988V82.1687H112.895V83.321H107.565ZM123.905 75.3591H125.046V83.321H123.758V78.0585L121.659 82.0326H120.687L118.576 78.1142L118.587 83.321H117.299V75.3591H118.45L121.184 80.5646L123.905 75.3591ZM126.773 83.321V75.3591H132.104V76.5115H128.196V78.702H131.878V79.8421H128.196V82.1687H132.104V83.321H126.773ZM138.777 75.3591H140.144V83.321H139.049L134.78 77.7646V83.321H133.425V75.3591H134.509L138.777 80.9034V75.3605V75.3591ZM147.947 83.321L147.144 81.4571H143.272L142.47 83.321H141.002L144.604 75.3591H145.791L149.392 83.321H147.947ZM143.746 80.3278H146.66L145.204 76.9401L143.746 80.3278ZM156.913 83.321H155.332L153.966 80.7795C153.863 80.5658 153.698 80.3887 153.491 80.2721C153.269 80.1668 153.025 80.1164 152.78 80.1251H151.674V83.321H150.24V75.3591H153.763C154.665 75.3591 155.353 75.5605 155.823 75.9632C156.294 76.3659 156.529 76.9483 156.529 77.7088C156.529 78.3183 156.358 78.8204 156.015 79.2163C155.674 79.6108 155.189 79.8693 154.565 79.9891C154.987 80.102 155.325 80.4 155.581 80.8816L156.914 83.321H156.913ZM153.559 79.0081C154.109 79.0081 154.512 78.9034 154.768 78.6952C155.023 78.4897 155.151 78.1714 155.151 77.7428C155.151 77.3061 155.023 76.9877 154.768 76.7877C154.512 76.5877 154.109 76.4884 153.559 76.4884H151.663V79.0068H153.559V79.0081ZM158.087 83.321V75.3591H159.544V83.321H158.089H158.087ZM168.182 83.321H166.41L162.717 79.6163V83.321H161.261V75.3591H162.717V78.917L166.264 75.3591H168.003L164.153 79.1877L168.184 83.321H168.182Z" fill="white"/>
<path fill-rule="evenodd" clip-rule="evenodd" d="M28.4219 70.8121H170.299V69.3155H28.4219V70.8121ZM59.3144 55.5223C59.2936 56.1323 59.0367 56.7105 58.5978 57.1347C58.1589 57.5589 57.5724 57.796 56.962 57.796C56.3516 57.796 55.7651 57.5589 55.3262 57.1347C54.8873 56.7105 54.6304 56.1323 54.6096 55.5223C54.6096 54.8984 54.8575 54.3001 55.2986 53.8589C55.7398 53.4178 56.3381 53.1699 56.962 53.1699C57.5859 53.1699 58.1842 53.4178 58.6254 53.8589C59.0666 54.3001 59.3144 54.8984 59.3144 55.5223ZM49.7593 55.5223C49.734 56.1291 49.4752 56.7026 49.0369 57.1229C48.5987 57.5433 48.0149 57.778 47.4076 57.778C46.8003 57.778 46.2165 57.5433 45.7783 57.1229C45.34 56.7026 45.0812 56.1291 45.0559 55.5223C45.0707 54.9084 45.3249 54.3246 45.7643 53.8956C46.2038 53.4666 46.7935 53.2265 47.4076 53.2265C48.0217 53.2265 48.6114 53.4666 49.0509 53.8956C49.4903 54.3246 49.7445 54.9084 49.7593 55.5223ZM40.2042 55.5223C40.1789 56.1291 39.9201 56.7026 39.4818 57.1229C39.0436 57.5433 38.4598 57.778 37.8525 57.778C37.2452 57.778 36.6614 57.5433 36.2232 57.1229C35.7849 56.7026 35.5261 56.1291 35.5008 55.5223C35.5008 54.8984 35.7486 54.3001 36.1898 53.8589C36.6309 53.4178 37.2293 53.1699 37.8532 53.1699C38.4771 53.1699 39.0754 53.4178 39.5166 53.8589C39.9577 54.3001 40.2056 54.8984 40.2056 55.5223H40.2042ZM165.35 55.5223C165.35 56.1458 165.102 56.7438 164.661 57.1847C164.22 57.6256 163.622 57.8733 162.999 57.8733C162.375 57.8733 161.777 57.6256 161.336 57.1847C160.895 56.7438 160.648 56.1458 160.648 55.5223C160.648 54.8988 160.895 54.3008 161.336 53.8599C161.777 53.419 162.375 53.1713 162.999 53.1713C163.622 53.1713 164.22 53.419 164.661 53.8599C165.102 54.3008 165.35 54.8988 165.35 55.5223ZM155.796 55.5223C155.796 56.146 155.548 56.7442 155.107 57.1852C154.666 57.6262 154.068 57.874 153.444 57.874C152.821 57.874 152.222 57.6262 151.781 57.1852C151.34 56.7442 151.093 56.146 151.093 55.5223C151.093 54.8988 151.34 54.3008 151.781 53.8599C152.222 53.419 152.82 53.1713 153.444 53.1713C154.067 53.1713 154.665 53.419 155.106 53.8599C155.547 54.3008 155.795 54.8988 155.795 55.5223H155.796ZM146.24 55.5223C146.247 55.8357 146.192 56.1475 146.077 56.4392C145.962 56.731 145.791 56.9968 145.572 57.2212C145.353 57.4455 145.091 57.6238 144.802 57.7455C144.513 57.8672 144.203 57.9299 143.889 57.9299C143.576 57.9299 143.265 57.8672 142.976 57.7455C142.688 57.6238 142.426 57.4455 142.207 57.2212C141.988 56.9968 141.816 56.731 141.701 56.4392C141.587 56.1475 141.531 55.8357 141.539 55.5223C141.554 54.9087 141.808 54.3253 142.247 53.8966C142.686 53.4678 143.275 53.2278 143.889 53.2278C144.503 53.2278 145.092 53.4678 145.532 53.8966C145.971 54.3253 146.225 54.9087 146.24 55.5223Z" fill="white"/>
<defs>
<linearGradient id="paint0_linear" x1="71.3468" y1="135.059" x2="132.814" y2="-91.7944" gradientUnits="userSpaceOnUse">
<stop stop-color="#52A3FF"/>
<stop offset="1" stop-color="#AFEDFF"/>
</linearGradient>
<linearGradient id="paint1_linear" x1="154.708" y1="0.897949" x2="154.708" y2="105.444" gradientUnits="userSpaceOnUse">
<stop stop-color="white"/>
<stop offset="1"/>
</linearGradient>
<linearGradient id="paint2_linear" x1="38.5831" y1="0.897949" x2="38.5831" y2="105.444" gradientUnits="userSpaceOnUse">
<stop stop-color="white"/>
<stop offset="1"/>
</linearGradient>
</defs>
</svg>
