<svg width="200" height="106" viewBox="0 0 200 106" fill="none" xmlns="http://www.w3.org/2000/svg">
<path fill-rule="evenodd" clip-rule="evenodd" d="M0 0.893311V13.0233H0.0693878C2.81898 13.0233 5.45595 14.11 7.40021 16.0444C9.34446 17.9788 10.4367 20.6023 10.4367 23.338C10.4367 26.0736 9.34446 28.6972 7.40021 30.6316C5.45595 32.566 2.81898 33.6527 0.0693878 33.6527C0.047619 33.6527 0.0231293 33.6283 0 33.6283V42.5962H0.0693878C5.78367 42.5962 10.434 47.2013 10.434 52.9109C10.434 58.5962 5.78367 63.2216 0.0693878 63.2216C0.047619 63.2216 0.0231293 63.2013 0 63.2013V72.1678H0.0693878C5.78367 72.1678 10.434 76.7742 10.434 82.4825C10.434 88.1664 5.78367 92.7958 0.0693878 92.7958H0V104.907H198.725V92.7958C195.976 92.7955 193.339 91.7086 191.395 89.7743C189.451 87.8399 188.359 85.2165 188.359 82.4811C188.357 81.1261 188.624 79.784 189.145 78.5318C189.665 77.2795 190.429 76.1417 191.392 75.1835C192.355 74.2254 193.498 73.4657 194.757 72.9479C196.016 72.4302 197.365 72.1646 198.727 72.1664V63.2216C195.978 63.2219 193.341 62.1359 191.397 60.2023C189.453 58.2687 188.36 55.6459 188.359 52.9109C188.357 51.5558 188.624 50.2136 189.144 48.9613C189.665 47.709 190.428 46.5711 191.391 45.6129C192.354 44.6547 193.498 43.895 194.757 43.3774C196.016 42.8597 197.365 42.5942 198.727 42.5962V33.6527C195.977 33.6527 193.34 32.566 191.396 30.6316C189.451 28.6972 188.359 26.0736 188.359 23.338C188.357 21.9829 188.624 20.6408 189.145 19.3886C189.665 18.1364 190.429 16.9986 191.392 16.0404C192.355 15.0822 193.498 14.3225 194.757 13.8048C196.016 13.2871 197.365 13.0215 198.727 13.0233V0.893311H0Z" fill="url(#paint0_linear)"/>
<path fill-rule="evenodd" clip-rule="evenodd" d="M59.3144 0.893311L33.0654 98.0398H25.0205L51.2654 0.893311H59.3144Z" fill="#F9CA2E"/>
<path fill-rule="evenodd" clip-rule="evenodd" d="M150.705 0.893311L145.183 18.0168H137.137L142.657 0.893311H150.705Z" fill="#F8E71C"/>
<path style="mix-blend-mode:overlay" opacity="0.216" fill-rule="evenodd" clip-rule="evenodd" d="M156.402 0.893311L128.034 104.908H153.014L181.382 0.893311H156.402Z" fill="url(#paint1_linear)"/>
<path style="mix-blend-mode:overlay" opacity="0.216" fill-rule="evenodd" clip-rule="evenodd" d="M48.7402 0.893311L20.377 104.908H28.4205L56.7892 0.893311H48.7402Z" fill="url(#paint2_linear)"/>
<path fill-rule="evenodd" clip-rule="evenodd" d="M176.774 98.0384H21.9457C21.9457 97.4482 21.8289 96.8639 21.6019 96.3186C21.3749 95.7734 21.0422 95.2779 20.6227 94.8606C20.2033 94.4433 19.7053 94.1123 19.1573 93.8864C18.6093 93.6606 18.0219 93.5443 17.4287 93.5443V14.3078C18.0219 14.3078 18.6093 14.1916 19.1573 13.9657C19.7053 13.7399 20.2033 13.4088 20.6227 12.9915C21.0422 12.5742 21.3749 12.0788 21.6019 11.5335C21.8289 10.9883 21.9457 10.4039 21.9457 9.81372H176.773C176.773 11.0056 177.249 12.1487 178.096 12.9915C178.943 13.8343 180.092 14.3078 181.29 14.3078V93.5443C180.092 93.5447 178.943 94.0183 178.096 94.861C177.249 95.7038 176.773 96.8466 176.773 98.0384" fill="#F58D49"/>
<path fill-rule="evenodd" clip-rule="evenodd" d="M66.6532 46.2645H71.8369C73.2464 46.2645 74.46 46.5163 75.4777 47.0185C76.4637 47.4919 77.2803 48.2543 77.8178 49.2032C78.3593 50.1562 78.6314 51.2851 78.6314 52.5914C78.6314 53.9098 78.3634 55.0455 77.8273 55.9985C77.2946 56.9479 76.4801 57.7104 75.4954 58.1819C74.4777 58.6855 73.2586 58.9373 71.8369 58.9373H66.6532V46.2645ZM71.6042 56.2773C72.8559 56.2773 73.7906 55.9714 74.4042 55.3596C75.0192 54.7491 75.3253 53.8259 75.3253 52.5914C75.3253 51.3569 75.0192 50.4378 74.4042 49.8327C73.7906 49.2276 72.8559 48.9244 71.6042 48.9244H69.977V56.2773H71.6042ZM80.6192 58.9373V46.2645H83.9457V58.9373H80.6205H80.6192ZM90.8641 59.0997C89.9117 59.0997 88.9729 58.9738 88.045 58.7207C87.1185 58.4702 86.3648 58.1345 85.7865 57.7149L86.8165 55.3785C87.4314 55.7616 88.0872 56.0554 88.7865 56.2584C89.4845 56.4614 90.1892 56.5643 90.9008 56.5643C91.6219 56.5643 92.1743 56.4655 92.5539 56.2665C92.9335 56.0702 93.1226 55.7914 93.1226 55.4313C93.1226 55.1078 92.9511 54.8452 92.6083 54.6408C92.2641 54.4378 91.611 54.2347 90.6477 54.0303C89.4545 53.7785 88.5212 53.478 87.8464 53.1315C87.1729 52.7836 86.6994 52.3762 86.4287 51.9092C86.1566 51.4408 86.0219 50.8669 86.0219 50.1833C86.0219 49.4036 86.2423 48.7051 86.6818 48.0892C87.1212 47.4719 87.7416 46.986 88.543 46.6327C89.343 46.2794 90.2613 46.1021 91.2981 46.1021C92.2137 46.1021 93.1022 46.2307 93.9634 46.4892C94.8246 46.7464 95.4954 47.0794 95.977 47.4868L94.9661 49.8232C93.8097 49.0327 92.5933 48.6374 91.3158 48.6374C90.7022 48.6374 90.2083 48.7538 89.8341 48.988C89.4613 49.2208 89.2736 49.5295 89.2736 49.9125C89.2736 50.1413 89.3416 50.3268 89.4736 50.4702C89.6056 50.6137 89.8518 50.7545 90.2137 50.8926C90.5756 51.0307 91.1117 51.1714 91.8219 51.3149C92.9784 51.5667 93.8872 51.8699 94.5498 52.2218C95.2124 52.5765 95.6818 52.9867 95.9593 53.4537C96.2369 53.922 96.3756 54.4797 96.3756 55.1268C96.3756 56.3721 95.8926 57.3467 94.9294 58.0479C93.9661 58.7491 92.611 59.0997 90.8641 59.0997ZM110.649 58.9373H106.71L101.578 53.2032V58.9373H98.2546V46.2645H101.578V51.7088L106.565 46.2631H110.45L104.831 52.2841L110.649 58.9359V58.9373ZM116.486 59.0997C115.184 59.0997 114.055 58.833 113.098 58.2997C112.151 57.7783 111.381 56.9899 110.883 56.0337C110.366 55.0577 110.108 53.9098 110.108 52.5914C110.108 51.273 110.366 50.1264 110.883 49.1491C111.379 48.1946 112.15 47.4089 113.097 46.8926C114.055 46.3647 115.184 46.1021 116.484 46.1021C117.785 46.1021 118.914 46.366 119.872 46.8926C120.818 47.4078 121.586 48.194 122.076 49.1491C122.589 50.1264 122.845 51.2743 122.845 52.5914C122.845 53.9098 122.587 55.0577 122.068 56.0337C121.571 56.9897 120.801 57.778 119.855 58.2997C118.897 58.833 117.773 59.0983 116.484 59.0983L116.486 59.0997ZM116.486 56.5643C117.448 56.5643 118.2 56.2259 118.744 55.5491C119.286 54.8723 119.557 53.8855 119.557 52.5914C119.557 51.2973 119.282 50.3146 118.735 49.6432C118.187 48.9718 117.437 48.6374 116.484 48.6374C115.521 48.6374 114.769 48.9691 114.226 49.635C113.684 50.2997 113.414 51.2865 113.414 52.5914C113.414 53.8977 113.684 54.8872 114.226 55.5572C114.769 56.2286 115.521 56.5643 116.484 56.5643H116.486ZM133.071 46.2631H136.178V58.9373H133.721L127.904 51.6926V58.9373H124.815V46.2645H127.235L133.072 53.5078V46.2645L133.071 46.2631ZM40.7144 74.6516H42.1375V82.5718H40.7144V79.1335H36.6396V82.5718H35.2056V74.6516H36.6396V77.9653H40.7158V74.6516H40.7144ZM47.4001 82.6733C46.6246 82.6733 45.9525 82.5081 45.3838 82.1779C44.8138 81.8468 44.3558 81.3543 44.0682 80.7633C43.7607 80.1488 43.6056 79.43 43.6056 78.6056C43.6056 77.7812 43.758 77.0652 44.0627 76.4533C44.3675 75.8442 44.8069 75.3731 45.3784 75.0442C45.9498 74.7153 46.6246 74.5501 47.4001 74.5501C48.1756 74.5501 48.8477 74.7153 49.4151 75.0442C49.9838 75.3731 50.4219 75.8428 50.7253 76.4547C51.0301 77.0638 51.1824 77.7812 51.1824 78.607C51.1824 79.43 51.0287 80.1488 50.7199 80.7633C50.411 81.3765 49.9716 81.8489 49.4042 82.1779C48.8355 82.5081 48.1675 82.6733 47.4001 82.6733ZM47.4001 81.5159C48.1307 81.5159 48.7008 81.2642 49.1103 80.7633C49.5212 80.2611 49.7267 79.5423 49.7267 78.6056C49.7267 77.6689 49.5212 76.9528 49.1103 76.4533C48.7008 75.9565 48.1307 75.7075 47.4001 75.7075C46.6627 75.7075 46.0886 75.9565 45.6777 76.4547C45.2682 76.9528 45.0627 77.6689 45.0627 78.607C45.0627 79.541 45.2668 80.2611 45.6777 80.7633C46.0886 81.2642 46.6627 81.5159 47.4001 81.5159ZM55.3498 82.6733C54.7686 82.6772 54.1902 82.5937 53.6341 82.4256C53.1415 82.2823 52.6813 82.0456 52.279 81.7284L52.7634 80.6726C53.1484 80.965 53.5525 81.1789 53.9784 81.3129C54.4028 81.4482 54.8641 81.5159 55.3607 81.5159C55.9103 81.5159 56.3348 81.4212 56.6314 81.229C56.7709 81.1468 56.8858 81.0291 56.9643 80.888C57.0427 80.7469 57.0819 80.5875 57.0777 80.4263C57.0812 80.2848 57.0443 80.1452 56.9714 80.0238C56.8984 79.9023 56.7923 79.8039 56.6654 79.74C56.3906 79.5829 55.9335 79.434 55.294 79.2906C54.7399 79.1821 54.1986 79.0165 53.679 78.7965C53.2641 78.6097 52.9525 78.3701 52.7403 78.0777C52.5307 77.7853 52.4246 77.4144 52.4246 76.965C52.4246 76.5007 52.5525 76.0851 52.8096 75.7183C53.0654 75.3515 53.426 75.0645 53.8926 74.8587C54.4032 74.6442 54.9535 74.5391 55.5076 74.5501C56.0654 74.5501 56.596 74.634 57.0994 74.8032C57.6042 74.9711 58.0192 75.2012 58.343 75.4936L57.8573 76.5494C57.1498 75.9877 56.3661 75.7075 55.5076 75.7075C54.996 75.7075 54.592 75.8103 54.294 76.0161C54.1518 76.1093 54.0361 76.2373 53.9579 76.3878C53.8798 76.5384 53.8418 76.7063 53.8477 76.8757C53.8477 77.1829 53.9797 77.4185 54.2423 77.5836C54.5062 77.7488 54.9552 77.9017 55.5865 78.0438C56.2573 78.1927 56.8015 78.3606 57.2192 78.5447C57.6369 78.7274 57.9566 78.9616 58.1784 79.2459C58.4001 79.5301 58.5117 79.8902 58.5117 80.3247C58.5117 80.7971 58.3852 81.21 58.1335 81.566C57.8818 81.922 57.5158 82.1954 57.0382 82.3863C56.5607 82.5772 55.9974 82.6733 55.3511 82.6733H55.3498ZM61.5607 82.5718V75.8415H58.9634V74.6503H65.6151V75.8415H63.0165V82.5718H61.5607ZM66.6083 82.5718V74.6516H68.0641V82.5718H66.6083ZM75.1348 74.6516H76.5008V82.5718H75.4056L71.1375 77.0435V82.5718H69.7824V74.6516H70.8654L75.1348 80.1677V74.6516ZM84.8573 78.2916V82.0885C84.4392 82.2873 83.997 82.431 83.5416 82.5163C83.0231 82.6213 82.4953 82.6739 81.9661 82.6733C81.1457 82.6733 80.4341 82.5108 79.8328 82.1846C79.2387 81.8672 78.756 81.377 78.4491 80.7795C78.1294 80.1704 77.9688 79.4449 77.9688 78.6056C77.9688 77.7745 78.1294 77.053 78.4491 76.4425C78.7688 75.8334 79.2246 75.365 79.8151 75.0388C80.4056 74.7139 81.1008 74.5501 81.8981 74.5501C82.4559 74.5501 82.9784 74.6313 83.4682 74.7911C83.9579 74.9535 84.3647 75.1836 84.6886 75.4814L84.2028 76.5278C83.8754 76.2659 83.5074 76.0588 83.1131 75.9146C82.7327 75.7873 82.3334 75.7246 81.9321 75.7291C81.1117 75.7291 80.4926 75.9714 80.075 76.4547C79.6573 76.9379 79.4491 77.654 79.4491 78.607C79.4491 80.5535 80.3062 81.5268 82.0233 81.5268C82.5348 81.5268 83.0464 81.4564 83.5593 81.3129V79.3244H81.8423V78.2916H84.8573ZM86.245 81.0219H87.8273V82.5718H86.245V81.0219ZM89.2954 74.6516H92.2314C93.5335 74.6516 94.5443 74.9968 95.2627 75.6899C95.9824 76.3829 96.3416 77.3548 96.3416 78.6056C96.3416 79.8564 95.9824 80.8296 95.2627 81.5268C94.5443 82.2239 93.5348 82.5718 92.2314 82.5718H89.2954V74.6516ZM92.1416 81.3928C93.9702 81.3928 94.8845 80.4628 94.8845 78.6056C94.8845 76.7552 93.9702 75.8306 92.1416 75.8306H90.7525V81.3914H92.1403L92.1416 81.3928ZM101.355 82.6733C100.58 82.6733 99.909 82.5081 99.3403 82.1779C98.7703 81.8468 98.3123 81.3543 98.0246 80.7633C97.7158 80.1488 97.562 79.43 97.562 78.6056C97.562 77.7812 97.7144 77.0652 98.0192 76.4533C98.3239 75.8442 98.762 75.3731 99.3348 75.0442C99.9062 74.7153 100.58 74.5501 101.355 74.5501C102.131 74.5501 102.803 74.7153 103.372 75.0442C103.94 75.3731 104.377 75.8428 104.682 76.4547C104.987 77.0638 105.139 77.7812 105.139 78.607C105.139 79.43 104.984 80.1488 104.676 80.7633C104.367 81.3765 103.928 81.8489 103.361 82.1779C102.792 82.5081 102.123 82.6733 101.355 82.6733ZM101.355 81.5159C102.086 81.5159 102.656 81.2642 103.067 80.7633C103.476 80.2611 103.682 79.5423 103.682 78.6056C103.682 77.6689 103.478 76.9528 103.067 76.4533C102.656 75.9565 102.086 75.7075 101.355 75.7075C100.618 75.7075 100.044 75.9565 99.6341 76.4547C99.2233 76.9528 99.0178 77.6689 99.0178 78.607C99.0178 79.541 99.2233 80.2611 99.6341 80.7633C100.044 81.2642 100.618 81.5159 101.355 81.5159ZM113.235 74.6516H114.376V82.5718H113.089V77.3359L110.988 81.2912H110.016L107.905 77.3927L107.918 82.5718H106.63V74.6516H107.782L110.516 79.8307L113.237 74.6516H113.235ZM122.191 82.5718L121.388 80.7173H117.516L116.713 82.5718H115.245L118.848 74.6516H120.033L123.635 82.5718H122.191ZM117.989 79.5938H120.904L119.446 76.2232L117.991 79.5938H117.989ZM124.483 82.5718V74.6516H125.939V82.5718H124.483ZM133.008 74.6516H134.374V82.5718H133.279L129.011 77.0435V82.5718H127.656V74.6516H128.74L133.008 80.1677V74.6516ZM135.842 81.0219H137.423V82.5718H135.842V81.0219ZM144.188 74.6516H145.667L142.123 82.5718H140.938L137.392 74.6516H138.893L141.536 80.7741L144.189 74.6516H144.188ZM146.412 74.6516H149.891C150.742 74.6516 151.404 74.8628 151.878 75.2851C152.354 75.7088 152.589 76.3031 152.589 77.0665C152.589 77.83 152.352 78.4256 151.878 78.8533C151.404 79.2797 150.742 79.4936 149.891 79.4936H147.869V82.5718H146.414V74.6516H146.412ZM149.71 78.3809C150.712 78.3809 151.212 77.9477 151.212 77.0774C151.212 76.6361 151.087 76.3085 150.84 76.0946C150.591 75.8807 150.214 75.7751 149.71 75.7751H147.869V78.3809H149.71ZM156.565 82.6719C155.983 82.6764 155.404 82.5933 154.848 82.4256C154.355 82.2823 153.895 82.0456 153.493 81.7284L153.978 80.6726C154.363 80.965 154.767 81.1789 155.193 81.3129C155.618 81.4482 156.079 81.5159 156.576 81.5159C157.125 81.5159 157.548 81.4212 157.846 81.229C157.986 81.1468 158.101 81.0291 158.179 80.888C158.258 80.7469 158.297 80.5875 158.293 80.4263C158.296 80.2848 158.259 80.1452 158.186 80.0238C158.113 79.9023 158.007 79.8039 157.88 79.74C157.606 79.5829 157.148 79.434 156.508 79.2906C155.954 79.182 155.413 79.0164 154.894 78.7965C154.479 78.6097 154.167 78.3701 153.955 78.0777C153.746 77.7853 153.64 77.4144 153.64 76.965C153.64 76.5007 153.767 76.0851 154.023 75.7183C154.28 75.3515 154.641 75.0645 155.108 74.8587C155.618 74.6442 156.168 74.5391 156.723 74.5501C157.28 74.5501 157.811 74.634 158.314 74.8032C158.819 74.9711 159.234 75.2012 159.557 75.4936L159.072 76.5494C158.365 75.9877 157.581 75.7075 156.723 75.7075C156.211 75.7075 155.807 75.8103 155.509 76.0161C155.367 76.1093 155.251 76.2373 155.173 76.3878C155.095 76.5384 155.057 76.7063 155.063 76.8757C155.063 77.1829 155.195 77.4185 155.457 77.5836C155.721 77.7488 156.169 77.9017 156.801 78.0438C157.472 78.1927 158.016 78.3606 158.434 78.5447C158.852 78.7274 159.172 78.9616 159.393 79.2459C159.615 79.5301 159.727 79.8902 159.727 80.3247C159.727 80.7971 159.6 81.21 159.348 81.566C159.097 81.922 158.731 82.1954 158.253 82.3863C157.774 82.5772 157.212 82.6733 156.565 82.6733V82.6719Z" fill="white"/>
<path d="M62.4954 40.7386L54.3059 31.473V40.7386H49V20.2614H54.3059V29.0622L62.2647 20.2614H68.4645L59.4964 29.9917L68.7817 40.7386H62.4954Z" fill="#E9722C"/>
<path d="M77.7347 41C74.7934 41 72.5538 40.2448 71.0159 38.7344C69.4972 37.2241 68.7378 35.0166 68.7378 32.112V20.2614H73.9283V32.3154C73.9283 33.787 74.2552 34.9198 74.9088 35.7137C75.5624 36.5076 76.5044 36.9046 77.7347 36.9046C78.9651 36.9046 79.9071 36.5076 80.5607 35.7137C81.2143 34.9198 81.5411 33.787 81.5411 32.3154V20.2614H86.7605V32.112C86.7605 34.9972 85.9819 37.2047 84.4248 38.7344C82.8868 40.2448 80.6568 41 77.7347 41Z" fill="#E9722C"/>
<path d="M90.3396 20.2614H100.173C102.422 20.2614 104.171 20.8423 105.421 22.0041C106.671 23.1466 107.295 24.7441 107.295 26.7967C107.295 28.8299 106.661 30.4274 105.392 31.5892C104.143 32.751 102.403 33.3319 100.173 33.3319H95.6455V40.7386H90.3396V20.2614ZM99.4519 29.3237C100.432 29.3237 101.153 29.1203 101.615 28.7137C102.095 28.3071 102.336 27.6777 102.336 26.8257C102.336 25.9737 102.095 25.3444 101.615 24.9378C101.153 24.5118 100.432 24.2988 99.4519 24.2988H95.6455V29.3237H99.4519Z" fill="#E9722C"/>
<path d="M119.571 41C117.495 41 115.688 40.574 114.15 39.722C112.631 38.8506 111.459 37.6307 110.632 36.0622C109.805 34.4744 109.392 32.6155 109.392 30.4855C109.392 28.3555 109.805 26.5062 110.632 24.9378C111.459 23.3499 112.631 22.13 114.15 21.278C115.688 20.426 117.495 20 119.571 20C121.648 20 123.445 20.426 124.964 21.278C126.502 22.13 127.674 23.3499 128.482 24.9378C129.308 26.5062 129.722 28.3555 129.722 30.4855C129.722 32.6155 129.308 34.4744 128.482 36.0622C127.655 37.6307 126.473 38.8506 124.935 39.722C123.416 40.574 121.628 41 119.571 41ZM119.571 36.9046C121.109 36.9046 122.311 36.3624 123.176 35.278C124.041 34.1743 124.473 32.5768 124.473 30.4855C124.473 28.3942 124.031 26.8064 123.147 25.722C122.282 24.6376 121.09 24.0954 119.571 24.0954C118.033 24.0954 116.832 24.6376 115.967 25.722C115.102 26.787 114.669 28.3748 114.669 30.4855C114.669 32.5961 115.102 34.1936 115.967 35.278C116.832 36.3624 118.033 36.9046 119.571 36.9046Z" fill="#E9722C"/>
<path d="M151 20.2614V40.7386H147.078L137.793 29.0332V40.7386H132.862V20.2614H136.726L146.04 31.9668V20.2614H151Z" fill="#E9722C"/>
<path d="M62.4954 38.7386L54.3059 29.473V38.7386H49V18.2614H54.3059V27.0622L62.2647 18.2614H68.4645L59.4964 27.9917L68.7817 38.7386H62.4954Z" fill="white"/>
<path d="M77.7347 39C74.7934 39 72.5538 38.2448 71.0159 36.7344C69.4972 35.2241 68.7378 33.0166 68.7378 30.112V18.2614H73.9283V30.3154C73.9283 31.787 74.2552 32.9198 74.9088 33.7137C75.5624 34.5076 76.5044 34.9046 77.7347 34.9046C78.9651 34.9046 79.9071 34.5076 80.5607 33.7137C81.2143 32.9198 81.5411 31.787 81.5411 30.3154V18.2614H86.7605V30.112C86.7605 32.9972 85.9819 35.2047 84.4248 36.7344C82.8868 38.2448 80.6568 39 77.7347 39Z" fill="white"/>
<path d="M90.3396 18.2614H100.173C102.422 18.2614 104.171 18.8423 105.421 20.0041C106.671 21.1466 107.295 22.7441 107.295 24.7967C107.295 26.8299 106.661 28.4274 105.392 29.5892C104.143 30.751 102.403 31.3319 100.173 31.3319H95.6455V38.7386H90.3396V18.2614ZM99.4519 27.3237C100.432 27.3237 101.153 27.1203 101.615 26.7137C102.095 26.3071 102.336 25.6777 102.336 24.8257C102.336 23.9737 102.095 23.3444 101.615 22.9378C101.153 22.5118 100.432 22.2988 99.4519 22.2988H95.6455V27.3237H99.4519Z" fill="white"/>
<path d="M119.571 39C117.495 39 115.688 38.574 114.15 37.722C112.631 36.8506 111.459 35.6307 110.632 34.0622C109.805 32.4744 109.392 30.6155 109.392 28.4855C109.392 26.3555 109.805 24.5062 110.632 22.9378C111.459 21.3499 112.631 20.13 114.15 19.278C115.688 18.426 117.495 18 119.571 18C121.648 18 123.445 18.426 124.964 19.278C126.502 20.13 127.674 21.3499 128.482 22.9378C129.308 24.5062 129.722 26.3555 129.722 28.4855C129.722 30.6155 129.308 32.4744 128.482 34.0622C127.655 35.6307 126.473 36.8506 124.935 37.722C123.416 38.574 121.628 39 119.571 39ZM119.571 34.9046C121.109 34.9046 122.311 34.3624 123.176 33.278C124.041 32.1743 124.473 30.5768 124.473 28.4855C124.473 26.3942 124.031 24.8064 123.147 23.722C122.282 22.6376 121.09 22.0954 119.571 22.0954C118.033 22.0954 116.832 22.6376 115.967 23.722C115.102 24.787 114.669 26.3748 114.669 28.4855C114.669 30.5961 115.102 32.1936 115.967 33.278C116.832 34.3624 118.033 34.9046 119.571 34.9046Z" fill="white"/>
<path d="M151 18.2614V38.7386H147.078L137.793 27.0332V38.7386H132.862V18.2614H136.726L146.04 29.9668V18.2614H151Z" fill="white"/>
<path fill-rule="evenodd" clip-rule="evenodd" d="M28.4219 70.4528H170.299V68.9638H28.4219V70.4528ZM59.3144 55.2406C59.2936 55.8475 59.0367 56.4227 58.5978 56.8448C58.1589 57.2668 57.5724 57.5028 56.962 57.5028C56.3516 57.5028 55.7651 57.2668 55.3262 56.8448C54.8873 56.4227 54.6304 55.8475 54.6096 55.2406C54.6096 54.6199 54.8575 54.0246 55.2986 53.5856C55.7398 53.1467 56.3381 52.9001 56.962 52.9001C57.5859 52.9001 58.1842 53.1467 58.6254 53.5856C59.0666 54.0246 59.3144 54.6199 59.3144 55.2406ZM49.7593 55.2406C49.734 55.8443 49.4752 56.4149 49.0369 56.8331C48.5987 57.2514 48.0149 57.4849 47.4076 57.4849C46.8003 57.4849 46.2165 57.2514 45.7783 56.8331C45.34 56.4149 45.0812 55.8443 45.0559 55.2406C45.0707 54.6298 45.3249 54.0489 45.7643 53.6221C46.2037 53.1953 46.7935 52.9564 47.4076 52.9564C48.0217 52.9564 48.6114 53.1953 49.0509 53.6221C49.4903 54.0489 49.7445 54.6298 49.7593 55.2406ZM40.2042 55.2406C40.1789 55.8443 39.9201 56.4149 39.4818 56.8331C39.0436 57.2514 38.4598 57.4849 37.8525 57.4849C37.2452 57.4849 36.6614 57.2514 36.2232 56.8331C35.7849 56.4149 35.5261 55.8443 35.5008 55.2406C35.5008 54.6199 35.7486 54.0246 36.1898 53.5856C36.6309 53.1467 37.2293 52.9001 37.8532 52.9001C38.4771 52.9001 39.0754 53.1467 39.5166 53.5856C39.9577 54.0246 40.2055 54.6199 40.2055 55.2406H40.2042ZM165.35 55.2406C165.35 55.8609 165.102 56.4559 164.661 56.8946C164.22 57.3332 163.622 57.5797 162.999 57.5797C162.375 57.5797 161.777 57.3332 161.336 56.8946C160.895 56.4559 160.648 55.8609 160.648 55.2406C160.648 54.6202 160.895 54.0253 161.336 53.5866C161.777 53.1479 162.375 52.9015 162.999 52.9015C163.622 52.9015 164.22 53.1479 164.661 53.5866C165.102 54.0253 165.35 54.6202 165.35 55.2406ZM155.796 55.2406C155.796 55.8611 155.548 56.4563 155.107 56.895C154.666 57.3338 154.068 57.5803 153.444 57.5803C152.821 57.5803 152.222 57.3338 151.781 56.895C151.34 56.4563 151.093 55.8611 151.093 55.2406C151.093 54.6202 151.34 54.0253 151.781 53.5866C152.222 53.1479 152.82 52.9015 153.444 52.9015C154.067 52.9015 154.665 53.1479 155.106 53.5866C155.547 54.0253 155.795 54.6202 155.795 55.2406H155.796ZM146.24 55.2406C146.247 55.5524 146.192 55.8626 146.077 56.1528C145.962 56.4431 145.791 56.7076 145.572 56.9308C145.353 57.154 145.091 57.3314 144.802 57.4525C144.513 57.5736 144.203 57.6359 143.889 57.6359C143.576 57.6359 143.265 57.5736 142.976 57.4525C142.688 57.3314 142.426 57.154 142.207 56.9308C141.988 56.7076 141.816 56.4431 141.701 56.1528C141.587 55.8626 141.531 55.5524 141.539 55.2406C141.554 54.6301 141.808 54.0496 142.247 53.6231C142.686 53.1965 143.275 52.9578 143.889 52.9578C144.503 52.9578 145.092 53.1965 145.532 53.6231C145.971 54.0496 146.225 54.6301 146.24 55.2406Z" fill="white"/>
<defs>
<linearGradient id="paint0_linear" x1="168.089" y1="-44.5564" x2="146.969" y2="161.173" gradientUnits="userSpaceOnUse">
<stop stop-color="#FAD961"/>
<stop offset="1" stop-color="#F7BD1C"/>
</linearGradient>
<linearGradient id="paint1_linear" x1="154.708" y1="0.893311" x2="154.708" y2="104.908" gradientUnits="userSpaceOnUse">
<stop stop-color="white"/>
<stop offset="1"/>
</linearGradient>
<linearGradient id="paint2_linear" x1="38.5831" y1="0.893311" x2="38.5831" y2="104.908" gradientUnits="userSpaceOnUse">
<stop stop-color="white"/>
<stop offset="1"/>
</linearGradient>
</defs>
</svg>
