<svg width="92" height="92" viewBox="0 0 92 92" fill="none" xmlns="http://www.w3.org/2000/svg">
<path d="M46 92C71.4051 92 92 71.4051 92 46C92 20.5949 71.4051 0 46 0C20.5949 0 0 20.5949 0 46C0 71.4051 20.5949 92 46 92Z" fill="url(#paint0_linear)"/>
<path d="M46.0003 32.5901C47.3644 32.5901 48.4703 31.4843 48.4703 30.1201C48.4703 28.756 47.3644 27.6501 46.0003 27.6501C44.6361 27.6501 43.5303 28.756 43.5303 30.1201C43.5303 31.4843 44.6361 32.5901 46.0003 32.5901Z" stroke="white" stroke-width="2" stroke-linejoin="round"/>
<path d="M39.8403 39.6901C39.8001 39.3985 39.78 39.1045 39.7803 38.8101C39.7803 37.1604 40.4356 35.5784 41.6021 34.4119C42.7685 33.2454 44.3506 32.5901 46.0003 32.5901C47.6499 32.5901 49.232 33.2454 50.3985 34.4119C51.565 35.5784 52.2203 37.1604 52.2203 38.8101C52.2205 39.1045 52.2005 39.3985 52.1603 39.6901" stroke="white" stroke-width="2" stroke-linejoin="round"/>
<path d="M46.0003 41.8101C51.6446 41.8101 56.2203 37.2345 56.2203 31.5901C56.2203 25.9458 51.6446 21.3701 46.0003 21.3701C40.3559 21.3701 35.7803 25.9458 35.7803 31.5901C35.7803 37.2345 40.3559 41.8101 46.0003 41.8101Z" stroke="white" stroke-width="2" stroke-linejoin="round"/>
<path d="M62 46.3701H30C27.7909 46.3701 26 48.161 26 50.3701V55.9201C26 58.1293 27.7909 59.9201 30 59.9201H62C64.2091 59.9201 66 58.1293 66 55.9201V50.3701C66 48.161 64.2091 46.3701 62 46.3701Z" stroke="white" stroke-width="2" stroke-linejoin="round"/>
<path d="M32.4502 53.1401H51.1602" stroke="white" stroke-width="2" stroke-linecap="round" stroke-linejoin="round"/>
<path d="M58.5804 54.8202C59.5082 54.8202 60.2604 54.068 60.2604 53.1402C60.2604 52.2124 59.5082 51.4602 58.5804 51.4602C57.6526 51.4602 56.9004 52.2124 56.9004 53.1402C56.9004 54.068 57.6526 54.8202 58.5804 54.8202Z" stroke="white" stroke-width="2" stroke-linecap="round" stroke-linejoin="round"/>
<path d="M53.3096 39.5002H54.6296C55.9516 39.529 57.219 40.0331 58.1996 40.9202L64.8096 47.5202" stroke="white" stroke-width="2" stroke-linecap="round" stroke-linejoin="round"/>
<path d="M27.1602 47.5602L33.7302 40.9202C34.1989 40.4552 34.7567 40.0897 35.3702 39.8457C35.9837 39.6017 36.6401 39.4842 37.3002 39.5002H39.7802" stroke="white" stroke-width="2" stroke-linecap="round" stroke-linejoin="round"/>
<path d="M46 59.9102V64.1102" stroke="white" stroke-width="2" stroke-linejoin="round"/>
<path d="M56.5503 68.3003H50.0703" stroke="white" stroke-width="2" stroke-linecap="round" stroke-linejoin="round"/>
<path d="M41.7698 68.3003H35.2998" stroke="white" stroke-width="2" stroke-linecap="round" stroke-linejoin="round"/>
<path d="M48.2897 66.3701H48.1297V65.7001C48.127 65.2775 47.9573 64.8731 47.6575 64.5752C47.3578 64.2773 46.9523 64.1101 46.5297 64.1101H45.4697C45.0471 64.1101 44.6416 64.2773 44.3418 64.5752C44.0421 64.8731 43.8723 65.2775 43.8697 65.7001V66.3701H43.7097C43.2367 66.3728 42.784 66.5625 42.4504 66.8979C42.1169 67.2333 41.9297 67.6871 41.9297 68.1601V68.8401C41.9297 69.3131 42.1169 69.7669 42.4504 70.1023C42.784 70.4377 43.2367 70.6275 43.7097 70.6301H48.2897C48.7627 70.6275 49.2154 70.4377 49.549 70.1023C49.8825 69.7669 50.0697 69.3131 50.0697 68.8401V68.1601C50.0697 67.6871 49.8825 67.2333 49.549 66.8979C49.2154 66.5625 48.7627 66.3728 48.2897 66.3701V66.3701Z" stroke="white" stroke-width="2" stroke-linecap="round" stroke-linejoin="round"/>
<defs>
<linearGradient id="paint0_linear" x1="27.5" y1="2.89504e-06" x2="92" y2="116" gradientUnits="userSpaceOnUse">
<stop stop-color="#0CD7FF"/>
<stop offset="0.356067" stop-color="#0B87D7"/>
<stop offset="1" stop-color="#01152F"/>
</linearGradient>
</defs>
</svg>
