<svg width="192" height="143" viewBox="0 0 192 143" fill="none" xmlns="http://www.w3.org/2000/svg">
<path fill-rule="evenodd" clip-rule="evenodd" d="M66.8515 105.036H37.703C33.0012 105.036 29.1485 101.188 29.1485 96.4935C29.1485 91.7923 33.0012 87.9515 37.703 87.9515H39.604C41.9612 87.9515 44.0966 86.9897 45.6491 85.4458C47.1952 83.8956 48.1584 81.7633 48.1584 79.4095C48.1584 74.7082 44.3121 70.8674 39.604 70.8674H26.297C21.5952 70.8674 17.7426 67.0204 17.7426 62.3254C17.7426 57.6241 21.5952 53.7834 26.297 53.7834H79.5247C81.882 53.7834 84.0174 52.8216 85.5699 51.2777C87.116 49.7275 88.0792 47.5951 88.0792 45.2413C88.0792 40.5401 84.2329 36.6993 79.5247 36.6993H66.2178C61.516 36.6993 57.6634 32.8522 57.6634 28.1573C57.6634 23.456 61.516 19.6152 66.2178 19.6152H141.624C146.326 19.6152 150.178 23.456 150.178 28.1573C150.178 32.8522 146.326 36.6993 141.624 36.6993H130.851C128.494 36.6993 126.359 37.6611 124.806 39.205C123.26 40.7552 122.297 42.8875 122.297 45.2413C122.297 49.9426 126.143 53.7834 130.851 53.7834H153.03C157.731 53.7834 161.584 57.6241 161.584 62.3254C161.584 67.0204 157.731 70.8674 153.03 70.8674H90.9307C88.5735 70.8674 86.438 71.8292 84.8855 73.3731C83.3394 74.9233 82.3762 77.0557 82.3762 79.4095C82.3762 84.1108 86.2226 87.9515 90.9307 87.9515H128.951C133.652 87.9515 137.505 91.7923 137.505 96.4935C137.505 101.188 133.652 105.036 128.951 105.036H118.178C115.821 105.036 113.686 105.997 112.133 107.541C110.587 109.091 109.624 111.224 109.624 113.578C109.624 118.279 113.47 122.12 118.178 122.12H140.356C145.058 122.12 148.911 125.96 148.911 130.662C148.911 135.357 145.058 139.204 140.356 139.204H64.9505C60.2487 139.204 56.396 135.357 56.396 130.662C56.396 125.96 60.2487 122.12 64.9505 122.12H66.8515C69.2087 122.12 71.3442 121.158 72.8966 119.614C74.4428 118.064 75.4059 115.931 75.4059 113.578C75.4059 108.876 71.5596 105.036 66.8515 105.036ZM183.129 72.1329H176.158C171.259 72.1329 167.287 68.1669 167.287 63.2745C167.287 58.3822 171.259 54.4161 176.158 54.4161H183.129C188.028 54.4161 192 58.3822 192 63.2745C192 68.1669 188.028 72.1329 183.129 72.1329ZM15.8416 96.8099H8.87129C3.9718 96.8099 0 92.8439 0 87.9515C0 83.0591 3.9718 79.0931 8.87129 79.0931H15.8416C20.7411 79.0931 24.7129 83.0591 24.7129 87.9515C24.7129 92.8439 20.7411 96.8099 15.8416 96.8099Z" fill="#E7F0FF"/>
<path fill-rule="evenodd" clip-rule="evenodd" d="M75.2872 63.3167C63.8965 61.7602 55.0905 51.9868 55.0905 40.1918V32.2762H75.2879V25.354H48.1582V40.1918C48.1582 55.8092 60.0641 68.6995 75.2872 70.294V63.3173V63.3167Z" fill="#FFC200"/>
<mask id="mask0" mask-type="alpha" maskUnits="userSpaceOnUse" x="48" y="32" width="28" height="39">
<path d="M48.1582 32.3503H75.2872V70.2934H48.1582V32.3503Z" fill="white"/>
</mask>
<g mask="url(#mask0)">
<path fill-rule="evenodd" clip-rule="evenodd" d="M48.1582 32.3503V40.1913C48.1582 55.8087 60.0635 68.6989 75.2872 70.2934V63.3168C63.8965 61.7603 55.0898 51.9863 55.0898 40.1913V32.3503H48.1582Z" fill="#FFA300"/>
</g>
<path fill-rule="evenodd" clip-rule="evenodd" d="M115.925 63.3167C127.316 61.7602 136.122 51.9868 136.122 40.1912V32.2762H115.925V25.354H143.054V40.1918C143.054 55.8092 131.148 68.6995 115.925 70.294V63.3173V63.3167Z" fill="#FFC200"/>
<path fill-rule="evenodd" clip-rule="evenodd" d="M143.054 32.3503V40.1919C143.054 55.8087 131.148 68.6995 115.925 70.2941V63.3174C127.316 61.7609 136.122 51.9869 136.122 40.1919V32.3503H143.054Z" fill="#FFA300"/>
<path fill-rule="evenodd" clip-rule="evenodd" d="M103.109 89.6061L101.728 80.3737H102.024C102.608 80.3737 103.167 80.1423 103.58 79.7304C103.992 79.3186 104.224 78.7599 104.224 78.1775C104.224 77.595 103.992 77.0363 103.58 76.6245C103.167 76.2126 102.608 75.9812 102.024 75.9812H89.0851C88.5017 75.9812 87.9423 76.2126 87.5298 76.6245C87.1173 77.0363 86.8856 77.595 86.8856 78.1775C86.8856 78.7599 87.1173 79.3186 87.5298 79.7304C87.9423 80.1423 88.5017 80.3737 89.0851 80.3737H89.3816L88.0002 89.6054C83.5164 90.1002 80.0269 93.8923 80.0269 98.5018V98.5923H111.083V98.5018C111.083 93.8923 107.593 90.1002 103.109 89.6054" fill="#FFC200"/>
<path fill-rule="evenodd" clip-rule="evenodd" d="M95.8252 78.7075H95.284C80.0349 78.7075 67.2178 67.2726 65.5082 52.1418L61.6821 20.3477L62.0211 20.28C63.1972 20.0427 127.912 20.0427 129.088 20.28L129.427 20.3477L125.602 52.1418C123.891 67.2726 111.074 78.7075 95.8252 78.7075Z" fill="#FFC200"/>
<path fill-rule="evenodd" clip-rule="evenodd" d="M129.427 20.3478L129.087 20.2795C117.586 20.2795 106.787 20.1023 95.5537 20.1023V78.7076H95.8249C98.9047 78.7072 101.966 78.2326 104.901 77.3004C105.57 77.0889 106.231 76.854 106.883 76.5961C116.893 72.6238 124.328 63.4098 125.601 52.1419L129.427 20.3478Z" fill="#FFA300"/>
<path fill-rule="evenodd" clip-rule="evenodd" d="M103.109 89.6061L101.728 80.3737H102.024C102.608 80.3737 103.167 80.1423 103.58 79.7304C103.992 79.3186 104.224 78.7599 104.224 78.1775C104.224 77.595 103.992 77.0363 103.58 76.6245C103.167 76.2126 102.608 75.9812 102.024 75.9812H95.5547V98.5923H111.083V98.5018C111.083 93.8923 107.593 90.0996 103.109 89.6054" fill="#FFA300"/>
<path fill-rule="evenodd" clip-rule="evenodd" d="M102.418 84.9902L101.752 80.5344H89.3573L88.6907 84.9895L102.418 84.9902ZM129.568 19.9486L129.227 23.2515H62.0274L61.6865 19.9486L62.0268 19.884C62.9583 19.6917 128.295 19.6917 129.227 19.884L129.568 19.9486Z" fill="#CC6315"/>
<mask id="mask1" mask-type="alpha" maskUnits="userSpaceOnUse" x="56" y="11" width="79" height="10">
<path d="M56.9517 11.7058H134.36V20.3649H56.9517V11.7058Z" fill="white"/>
</mask>
<g mask="url(#mask1)">
<path fill-rule="evenodd" clip-rule="evenodd" d="M130.025 20.3648H61.2894C60.1524 20.3454 59.0685 19.8808 58.2713 19.071C57.4741 18.2612 57.0273 17.1711 57.0273 16.0356C57.0273 14.9001 57.4741 13.81 58.2713 13.0002C59.0685 12.1904 60.1524 11.7258 61.2894 11.7064H130.025C130.599 11.6994 131.169 11.8063 131.701 12.0208C132.233 12.2353 132.717 12.5531 133.125 12.9558C133.534 13.3585 133.858 13.8381 134.079 14.3669C134.3 14.8956 134.414 15.4629 134.414 16.0359C134.414 16.6089 134.3 17.1762 134.079 17.705C133.858 18.2337 133.534 18.7133 133.125 19.116C132.717 19.5188 132.233 19.8366 131.701 20.051C131.169 20.2655 130.599 20.3724 130.025 20.3655" fill="#FFC200"/>
</g>
<path fill-rule="evenodd" clip-rule="evenodd" d="M128.557 128.708V105.725C128.557 101.681 125.275 98.4023 121.225 98.4023H69.9866C65.9375 98.4023 62.6539 101.68 62.6539 105.725V128.708H62.3421C58.4083 128.708 55.2197 131.893 55.2197 135.821V138.39H135.993V135.822C135.993 131.892 132.803 128.708 128.869 128.708H128.557Z" fill="#7D7C9B"/>
<path fill-rule="evenodd" clip-rule="evenodd" d="M121.225 98.4023H95.606V138.39H135.992V135.822C135.992 131.892 132.804 128.708 128.87 128.708H128.558V105.725C128.558 101.681 125.275 98.4023 121.225 98.4023Z" fill="#5E5E7C"/>
<path fill-rule="evenodd" clip-rule="evenodd" d="M62.6543 128.708H128.558V124.244H62.6543V128.708Z" fill="#5E5E7C"/>
<path fill-rule="evenodd" clip-rule="evenodd" d="M55.2199 142.855H135.992V138.391H55.2192L55.2199 142.855Z" fill="#3F3F5B"/>
<path fill-rule="evenodd" clip-rule="evenodd" d="M110.79 123.889H80.4214C79.8248 123.889 79.2526 123.652 78.8307 123.231C78.4089 122.81 78.1719 122.238 78.1719 121.643V108.614C78.1718 108.319 78.2299 108.027 78.3429 107.755C78.4559 107.482 78.6216 107.234 78.8305 107.026C79.0394 106.817 79.2874 106.651 79.5604 106.538C79.8334 106.426 80.1259 106.367 80.4214 106.367H110.79C111.387 106.367 111.959 106.604 112.381 107.025C112.803 107.447 113.04 108.018 113.04 108.614V121.642C113.04 122.238 112.803 122.809 112.381 123.23C111.959 123.651 111.387 123.888 110.79 123.888" fill="#96A6A8"/>
<path fill-rule="evenodd" clip-rule="evenodd" d="M110.79 122.151H80.4214C79.8248 122.151 79.2526 121.915 78.8307 121.493C78.4089 121.072 78.1719 120.501 78.1719 119.905V106.877C78.1718 106.582 78.2299 106.29 78.3429 106.017C78.4559 105.744 78.6216 105.497 78.8305 105.288C79.0394 105.079 79.2874 104.914 79.5604 104.801C79.8334 104.688 80.1259 104.63 80.4214 104.63H110.79C111.387 104.63 111.959 104.867 112.381 105.288C112.803 105.709 113.04 106.28 113.04 106.876V119.904C113.04 120.5 112.803 121.071 112.381 121.493C111.959 121.914 111.387 122.151 110.79 122.151" fill="#BECACC"/>
<path fill-rule="evenodd" clip-rule="evenodd" d="M112.438 105.352C112.229 105.125 111.975 104.943 111.692 104.819C111.409 104.695 111.104 104.631 110.795 104.631H109.463L91.9171 122.151H95.6139L112.438 105.352H112.438ZM79.4004 121.894C79.7165 122.061 80.0681 122.149 80.4257 122.151H88.1038L105.65 104.631H96.6899L79.4004 121.894Z" fill="#DAE7E8"/>
<path fill-rule="evenodd" clip-rule="evenodd" d="M84.8962 110.096H106.316C107.716 110.096 107.718 107.925 106.316 107.925H84.8962C83.4965 107.925 83.4946 110.096 84.8962 110.096ZM88.6653 113.69H102.547C103.946 113.69 103.948 111.519 102.547 111.519H88.6653C87.2661 111.519 87.2636 113.69 88.6653 113.69ZM84.8962 118.856H106.316C107.716 118.856 107.718 116.686 106.316 116.686H84.8962C83.4965 116.686 83.4946 118.856 84.8962 118.856Z" fill="#7D8D8E"/>
<path fill-rule="evenodd" clip-rule="evenodd" d="M116.191 55.6777C115.846 55.6182 115.504 55.5334 115.156 55.5024C112.944 55.3031 110.782 55.4809 108.747 56.4566C107.873 56.8748 107.196 57.4943 106.879 58.451C106.782 58.7446 106.801 58.9363 107.084 59.1217C107.763 59.5646 108.512 59.7064 109.297 59.6627C111.058 59.5646 112.567 58.7927 113.963 57.7986C114.777 57.2184 115.51 56.5243 116.279 55.8814L116.19 55.6777H116.191ZM107.27 61.311C106.741 60.963 106.232 60.5796 105.679 60.2758C104.257 59.495 102.75 58.954 101.112 58.8965C100.227 58.8648 99.3965 59.042 98.7337 59.707C98.5138 59.9272 98.4954 60.1151 98.6576 60.3714C99.2279 61.2724 100.089 61.7394 101.087 61.9703C103.181 62.455 105.216 62.1728 107.208 61.4705L107.27 61.311ZM118.989 48.1607C118.404 48.3126 117.894 48.4075 117.411 48.577C115.706 49.175 114.115 49.9697 112.956 51.4193C112.52 51.9647 112.26 52.5918 112.307 53.315C112.325 53.5713 112.417 53.6978 112.698 53.7522C113.622 53.93 114.454 53.6934 115.21 53.2049C116.929 52.0945 118.045 50.4841 118.873 48.6511C118.921 48.546 118.929 48.4226 118.99 48.1607H118.989ZM108.488 52.9461C108.334 52.9056 108.291 52.8822 108.25 52.886C106.245 53.086 104.575 53.887 103.5 55.6524C103.164 56.2054 103.088 56.866 103.246 57.5133C103.27 57.5929 103.31 57.667 103.363 57.7312C103.415 57.7955 103.48 57.8487 103.554 57.8879C104.393 58.2764 105.166 58.0619 105.85 57.5221C106.884 56.7078 107.538 55.6125 108.009 54.404C108.19 53.9389 108.323 53.4549 108.488 52.9461ZM112.939 36.6865C112.734 37.3307 112.513 37.8932 112.376 38.4759C112.075 39.7598 111.966 41.06 112.245 42.3654C112.398 43.0804 112.705 43.7049 113.314 44.1662C113.65 44.4218 113.878 44.3933 114.136 44.0782C114.616 43.4986 114.874 42.7675 114.864 42.0155C114.86 40.14 114.212 38.4633 113.183 36.9181C113.144 36.8605 113.08 36.8194 112.939 36.6865ZM111.991 45.6677C111.223 46.3643 110.693 47.2337 110.236 48.1518C109.805 49.0187 109.438 49.9096 109.366 50.8929C109.313 51.6104 109.41 52.2849 109.884 52.8658C110.037 53.0537 110.184 53.1037 110.418 52.9917C110.932 52.749 111.359 52.3545 111.641 51.8616C112.318 50.7056 112.499 49.4331 112.443 48.1265C112.408 47.3059 112.275 46.4896 112.186 45.6715C112.121 45.6701 112.055 45.6688 111.99 45.6677H111.991ZM117.709 42.0528C117.28 42.3597 116.882 42.6109 116.524 42.9096C115.613 43.6676 114.843 44.5572 114.276 45.5987C113.902 46.2852 113.666 47.023 113.869 47.8266C114.026 48.4505 114.175 48.5283 114.773 48.3328C115.654 48.0449 116.219 47.3938 116.646 46.6314C117.392 45.2963 117.741 43.8454 117.758 42.316C117.758 42.2604 117.738 42.2053 117.709 42.0528H117.709ZM75.2527 55.6777C75.5974 55.6182 75.9395 55.5334 76.2874 55.5024C78.5002 55.3031 80.6616 55.4809 82.6969 56.4566C83.5701 56.8748 84.2475 57.4943 84.5643 58.451C84.6619 58.7446 84.6423 58.9363 84.359 59.1217C83.6804 59.5646 82.9314 59.7064 82.1463 59.6627C80.386 59.5646 78.8766 58.7927 77.4806 57.7986C76.6664 57.2184 75.9338 56.5243 75.1646 55.8814L75.2527 55.6777ZM84.1734 61.311C84.7025 60.963 85.2113 60.5796 85.7639 60.2758C87.1858 59.495 88.6927 58.954 90.3319 58.8965C91.2159 58.8648 92.0466 59.042 92.7101 59.707C92.9293 59.9272 92.9477 60.1151 92.7861 60.3714C92.2158 61.2724 91.354 61.7394 90.356 61.9703C88.2618 62.455 86.2277 62.1728 84.2348 61.4705C84.2142 61.4174 84.1937 61.3642 84.1734 61.311ZM72.4531 48.1607C73.0393 48.3126 73.5494 48.4075 74.0329 48.577C75.7374 49.175 77.3285 49.9697 78.4875 51.4193C78.9235 51.9647 79.1833 52.5918 79.1357 53.315C79.1186 53.5713 79.0261 53.6978 78.7448 53.7522C77.8215 53.93 76.9895 53.6934 76.2336 53.2049C74.5144 52.0945 73.3986 50.4841 72.5704 48.6511C72.5222 48.546 72.514 48.4226 72.4538 48.1607H72.4531ZM82.9548 52.9461C83.1088 52.9056 83.1525 52.8822 83.1931 52.886C85.198 53.086 86.8683 53.887 87.943 55.6524C88.2795 56.2054 88.3549 56.866 88.1971 57.5133C88.1731 57.5928 88.1336 57.6668 88.0808 57.7311C88.0281 57.7954 87.9632 57.8487 87.8898 57.8879C87.0502 58.2764 86.2771 58.0619 85.5934 57.5221C84.5593 56.7078 83.9053 55.6125 83.4345 54.404C83.2533 53.9389 83.1202 53.4549 82.9548 52.9461ZM78.5046 36.6865C78.7099 37.3307 78.9304 37.8932 79.0673 38.4759C79.3683 39.7598 79.4779 41.06 79.1978 42.3654C79.0451 43.0804 78.7378 43.7049 78.1288 44.1662C77.793 44.4218 77.5649 44.3933 77.307 44.0782C76.827 43.4986 76.5689 42.7675 76.5789 42.0155C76.5833 40.14 77.2316 38.4633 78.26 36.9181C78.2987 36.8605 78.3627 36.8194 78.504 36.6865H78.5046ZM79.4526 45.6677C80.2199 46.3643 80.751 47.2337 81.2072 48.1518C81.6381 49.0187 82.0056 49.9096 82.0778 50.8929C82.1304 51.6104 82.0335 52.2849 81.5595 52.8658C81.4062 53.0537 81.2591 53.1037 81.0247 52.9917C80.5109 52.749 80.0842 52.3545 79.8024 51.8616C79.125 50.7056 78.9444 49.4331 79.0001 48.1265C79.035 47.3059 79.1681 46.4896 79.2568 45.6715C79.322 45.6696 79.3873 45.6683 79.4532 45.6677H79.4526ZM73.7344 42.0528C74.1628 42.3597 74.5607 42.6109 74.9193 42.9096C75.8312 43.6676 76.5998 44.5572 77.1669 45.5987C77.5421 46.2852 77.7772 47.023 77.5744 47.8266C77.4172 48.4505 77.2683 48.5283 76.6702 48.3328C75.7894 48.0449 75.2241 47.3938 74.7977 46.6314C74.0512 45.2963 73.7027 43.8454 73.6862 42.316C73.6856 42.2604 73.7052 42.2053 73.7344 42.0528ZM99.1228 48.7314C98.1312 48.723 97.1828 48.3255 96.4823 47.6248L93.1631 44.3111C92.8665 44.0108 92.4627 43.8401 92.0403 43.8365C91.8335 43.8357 91.6285 43.8759 91.4374 43.9549C91.2462 44.0339 91.0727 44.15 90.927 44.2965L89.9479 45.2741L89.5354 45.6867L88.578 46.6434L88.1813 47.0395L87.5255 47.6937L86.9399 48.279L86.8221 48.3967C86.7192 48.4998 86.597 48.5815 86.4625 48.6373C86.3279 48.6931 86.1836 48.7219 86.0379 48.7219C85.8922 48.7219 85.7479 48.6931 85.6134 48.6373C85.4788 48.5815 85.3566 48.4998 85.2538 48.3967C85.2014 48.3446 85.1545 48.2874 85.1137 48.2259C85.0481 48.5706 85.0773 48.9267 85.1982 49.2562C85.3192 49.5856 85.5273 49.8762 85.8005 50.0969C86.0737 50.3177 86.4017 50.4603 86.7497 50.5097C87.0976 50.559 87.4524 50.5132 87.7764 50.3772C87.9855 50.2892 88.1762 50.1646 88.3403 50.0121L88.3657 49.9881L88.391 49.9627L88.4246 49.9292L89.5057 48.8491L90.868 47.4887L91.2539 47.1027L91.2628 47.0945C91.4716 46.8907 91.7524 46.7773 92.0443 46.779C92.3363 46.7806 92.6158 46.8972 92.8222 47.1034L94.7872 49.0655C96.2327 49.3979 97.7454 49.2813 99.1228 48.7314ZM106.142 41.7934C106.031 41.7934 105.919 41.8032 105.809 41.8225C105.942 41.9152 106.053 42.0358 106.134 42.176C106.216 42.3161 106.265 42.4722 106.279 42.6335C106.294 42.7948 106.272 42.9572 106.217 43.1094C106.162 43.2616 106.074 43.3999 105.959 43.5145L101.868 47.5988L101.842 47.6248C101.77 47.6965 101.696 47.7653 101.619 47.831C100.98 48.3998 100.253 48.8595 99.4643 49.1914C98.5011 49.5989 97.4784 49.8052 96.424 49.8052C96.1363 49.8052 95.8518 49.79 95.5698 49.759C96.6075 50.5316 97.8677 50.9482 99.162 50.9467C99.9509 50.9474 100.732 50.7928 101.461 50.4916C102.19 50.1904 102.852 49.7486 103.41 49.1914L107.4 45.2077L107.528 45.0805C107.572 45.0356 107.616 44.9894 107.658 44.9426C107.924 44.611 108.083 44.1896 108.083 43.7321C108.083 43.2182 107.878 42.7255 107.514 42.362C107.151 41.9986 106.657 41.7941 106.142 41.7934ZM108.258 41.4815C108.091 41.0693 107.843 40.6951 107.528 40.3811C107.219 40.0719 106.852 39.8268 106.448 39.6597C106.044 39.4927 105.611 39.4071 105.174 39.408C104.743 39.408 104.323 39.4902 103.923 39.6516L103.88 39.6693C103.485 39.8366 103.125 40.0783 102.821 40.3811L100.308 42.8906L99.9465 43.2519C99.8435 43.3548 99.7212 43.4365 99.5866 43.4922C99.452 43.5479 99.3078 43.5765 99.162 43.5765C99.0163 43.5765 98.8721 43.5479 98.7374 43.4922C98.6028 43.4365 98.4806 43.3548 98.3776 43.2519L96.45 41.3271C95.8938 41.1934 95.3238 41.126 94.7517 41.1265C93.8487 41.1255 92.9535 41.2938 92.1125 41.6226C93.0921 41.6391 94.0266 42.0363 94.7175 42.7299L98.0506 46.0587C98.1965 46.2045 98.3698 46.3201 98.5605 46.3988C98.7512 46.4775 98.9557 46.5178 99.162 46.5175C99.3683 46.5179 99.5727 46.4775 99.7633 46.3988C99.9539 46.3201 100.127 46.2045 100.273 46.0587L101.228 45.1052L101.641 44.6926L104.235 42.1022L104.39 41.9478C104.431 41.9073 104.474 41.87 104.518 41.8371H104.519C104.971 41.4493 105.547 41.2364 106.142 41.2372C106.659 41.2379 107.162 41.3981 107.584 41.6958C108.006 41.9935 108.325 42.4141 108.498 42.9001C108.521 42.4155 108.44 41.9315 108.258 41.4815ZM94.3373 39.8616C93.6085 39.5596 92.8269 39.4048 92.0378 39.4061C91.2486 39.405 90.467 39.5598 89.738 39.8614C89.0089 40.1631 88.3468 40.6057 87.7897 41.1638L83.6842 45.2646C83.2208 45.7259 82.9043 46.3136 82.7744 46.954C82.6445 47.5943 82.7071 48.2587 82.9542 48.8637C83.1214 49.2758 83.3701 49.65 83.6854 49.964C84.0023 50.2804 84.373 50.5259 84.7868 50.6929C85.2217 50.8697 85.6893 50.9521 86.1586 50.9346C85.6788 50.7579 85.2648 50.4387 84.9722 50.0199C84.6795 49.6011 84.5224 49.1029 84.5219 48.5922C84.5219 47.8836 84.8197 47.2426 85.2962 46.7876H85.2968L88.7288 43.3594L89.095 42.9931L89.0982 42.9899L89.218 42.8697L89.358 42.7305C89.4428 42.6455 89.5316 42.5646 89.6241 42.4882C90.2458 41.9461 90.9499 41.5066 91.7102 41.186C92.6723 40.779 93.7068 40.5702 94.7517 40.5722C95.061 40.5722 95.3677 40.5912 95.6706 40.626C95.261 40.3147 94.8129 40.0576 94.3373 39.861" fill="#E58010"/>
<path d="M62.0698 17.9182L59.1265 17.1272C58.8572 17.055 58.6193 16.8961 58.4496 16.6751C58.2799 16.4542 58.188 16.1835 58.188 15.9051C58.188 15.6267 58.2799 15.356 58.4496 15.1351C58.6193 14.9141 58.8572 14.7552 59.1265 14.683L62.0698 13.892L62.8626 10.9523C62.9351 10.6837 63.0943 10.4464 63.3155 10.2772C63.5367 10.108 63.8075 10.0164 64.0862 10.0164C64.3648 10.0164 64.6356 10.108 64.8568 10.2772C65.078 10.4464 65.2372 10.6837 65.3098 10.9523L66.1025 13.8914L69.0465 14.683C69.3155 14.7554 69.5531 14.9144 69.7225 15.1352C69.892 15.3561 69.9838 15.6266 69.9838 15.9048C69.9838 16.183 69.892 16.4535 69.7225 16.6743C69.5531 16.8952 69.3155 17.0542 69.0465 17.1266L66.1025 17.9182L65.3104 20.8579C65.238 21.1268 65.0789 21.3644 64.8576 21.5338C64.6364 21.7032 64.3653 21.795 64.0865 21.795C63.8076 21.795 63.5366 21.7032 63.3153 21.5338C63.094 21.3644 62.9349 21.1268 62.8626 20.8579L62.0705 17.9182H62.0698Z" fill="#FFF2BB"/>
<path d="M36.7235 28.042L33.7801 27.2511C33.5108 27.1788 33.2729 27.0199 33.1032 26.799C32.9336 26.578 32.8416 26.3074 32.8416 26.0289C32.8416 25.7505 32.9336 25.4798 33.1032 25.2589C33.2729 25.0379 33.5108 24.879 33.7801 24.8068L36.7235 24.0159L37.5162 21.0761C37.5887 20.8075 37.7479 20.5702 37.9691 20.4011C38.1903 20.2319 38.4612 20.1402 38.7398 20.1402C39.0184 20.1402 39.2893 20.2319 39.5105 20.4011C39.7316 20.5702 39.8908 20.8075 39.9634 21.0761L40.7561 24.0152L43.7001 24.8068C43.9691 24.8792 44.2067 25.0382 44.3762 25.2591C44.5456 25.4799 44.6374 25.7504 44.6374 26.0286C44.6374 26.3068 44.5456 26.5773 44.3762 26.7982C44.2067 27.019 43.9691 27.178 43.7001 27.2504L40.7561 28.042L39.964 30.9817C39.8917 31.2506 39.7325 31.4882 39.5113 31.6576C39.29 31.827 39.0189 31.9188 38.7401 31.9188C38.4613 31.9188 38.1902 31.827 37.9689 31.6576C37.7477 31.4882 37.5885 31.2506 37.5162 30.9817L36.7241 28.042H36.7235ZM46.5174 12.0893L42.0063 10.8763C41.737 10.8041 41.4991 10.6451 41.3295 10.4242C41.1598 10.2032 41.0678 9.93259 41.0678 9.65416C41.0678 9.37573 41.1598 9.10507 41.3295 8.88412C41.4991 8.66317 41.737 8.50426 42.0063 8.43202L46.5174 7.21968L47.7315 2.71518C47.8038 2.44629 47.963 2.20872 48.1842 2.0393C48.4055 1.86988 48.6766 1.77805 48.9554 1.77805C49.2342 1.77805 49.5053 1.86988 49.7265 2.0393C49.9478 2.20872 50.107 2.44629 50.1793 2.71518L51.394 7.21968L55.9045 8.43202C56.1737 8.50426 56.4116 8.66317 56.5813 8.88412C56.751 9.10507 56.8429 9.37573 56.8429 9.65416C56.8429 9.93259 56.751 10.2032 56.5813 10.4242C56.4116 10.6451 56.1737 10.8041 55.9045 10.8763L51.394 12.0893L50.1793 16.5931C50.107 16.862 49.9478 17.0996 49.7265 17.269C49.5053 17.4384 49.2342 17.5303 48.9554 17.5303C48.6766 17.5303 48.4055 17.4384 48.1842 17.269C47.963 17.0996 47.8038 16.862 47.7315 16.5931L46.5174 12.0893ZM31.6732 6.61857L29.7747 6.10795C29.5057 6.0355 29.2681 5.87654 29.0987 5.65568C28.9292 5.43481 28.8374 5.16434 28.8374 4.88612C28.8374 4.6079 28.9292 4.33743 29.0987 4.11657C29.2681 3.8957 29.5057 3.73674 29.7747 3.66429L31.6732 3.15367L32.1845 1.25797C32.2571 0.989349 32.4163 0.752088 32.6375 0.582899C32.8587 0.413709 33.1295 0.322021 33.4081 0.322021C33.6868 0.322021 33.9576 0.413709 34.1788 0.582899C34.4 0.752088 34.5592 0.989349 34.6317 1.25797L35.1431 3.15367L37.0422 3.66429C37.3112 3.73674 37.5488 3.8957 37.7183 4.11657C37.8877 4.33743 37.9795 4.6079 37.9795 4.88612C37.9795 5.16434 37.8877 5.43481 37.7183 5.65568C37.5488 5.87654 37.3112 6.0355 37.0422 6.10795L35.1431 6.61857L34.6317 8.5149C34.5592 8.78353 34.4 9.02079 34.1788 9.18998C33.9576 9.35917 33.6868 9.45085 33.4081 9.45085C33.1295 9.45085 32.8587 9.35917 32.6375 9.18998C32.4163 9.02079 32.2571 8.78353 32.1845 8.5149L31.6732 6.61857Z" fill="#FFC200"/>
</svg>
