<svg width="270" height="270" viewBox="0 0 270 270" fill="none" xmlns="http://www.w3.org/2000/svg">
<path d="M12.19 147.1L0 135L11.83 123.26L2.47 109.5L16.75 99.92L10.1 84.14L26.03 77.53L22.64 60.72L39.54 57.36V40.25H56.27L59.45 23.95L76.37 27.2L82.92 11.37L98.89 17.88L108.47 3.61L122.81 13.1L135 1L146.83 12.74L160.69 3.45L170.34 17.63L186.24 11.03L192.9 26.84L209.83 23.47L213.22 40.25H230.46V56.85L246.88 60.01L243.6 76.81L259.55 83.3L252.99 99.16L267.37 108.66L257.81 122.9L270 135L258.17 146.74L267.53 160.5L253.25 170.08L259.9 185.86L243.97 192.47L247.36 209.28L230.46 212.64V229.75H213.73L210.55 246.05L193.63 242.8L187.08 258.63L171.11 252.12L161.53 266.39L147.19 256.9L135 269L123.17 257.26L109.31 266.55L99.66 252.37L83.76 258.97L77.1 243.16L60.17 246.53L56.78 229.75H39.54V213.15L23.12 209.99L26.4 193.19L10.45 186.7L17.01 170.84L2.63 161.34L12.19 147.1Z" fill="url(#paint0_linear)"/>
<path d="M129.43 121.46C130.977 123.6 131.775 126.19 131.7 128.83C131.76 130.768 131.334 132.69 130.461 134.421C129.588 136.152 128.295 137.637 126.7 138.74C123.367 141.153 118.847 142.357 113.14 142.35C109.847 142.362 106.57 141.897 103.41 140.97C100.72 140.244 98.2007 138.989 96 137.28L99.85 128.49C103.562 131.156 107.991 132.641 112.56 132.75C115.27 132.75 117.19 132.35 118.34 131.54C118.943 131.06 119.417 130.438 119.719 129.729C120.021 129.02 120.141 128.247 120.07 127.48C120.134 126.757 120.012 126.029 119.716 125.366C119.421 124.703 118.961 124.126 118.38 123.69C117.25 122.93 115.38 122.54 112.83 122.54H105.46V112.94H111.62C113.488 113.074 115.357 112.7 117.03 111.86C117.591 111.486 118.042 110.969 118.337 110.363C118.633 109.756 118.761 109.082 118.71 108.41C118.75 107.687 118.629 106.964 118.356 106.293C118.082 105.622 117.664 105.02 117.13 104.53C115.852 103.53 114.25 103.035 112.63 103.14C110.581 103.17 108.552 103.549 106.63 104.26C104.47 105.026 102.425 106.083 100.55 107.4L96.7 98.61C98.9269 96.9091 101.464 95.6591 104.17 94.93C107.228 94.0054 110.405 93.5371 113.6 93.54C116.642 93.4771 119.666 94.0281 122.49 95.16C124.854 96.1062 126.902 97.7007 128.4 99.76C129.812 101.78 130.548 104.196 130.5 106.66C130.559 108.992 129.884 111.283 128.57 113.21C127.23 115.103 125.326 116.524 123.13 117.27C125.642 117.918 127.861 119.394 129.43 121.46Z" fill="white"/>
<path d="M141.63 136.13C138.543 131.943 137 125.9 137 118C137 110.2 138.567 104.2 141.7 100C144.833 95.8 149.327 93.7067 155.18 93.72C161.04 93.72 165.537 95.8134 168.67 100C171.803 104.187 173.37 110.187 173.37 118C173.37 125.927 171.813 131.987 168.7 136.18C165.587 140.373 161.08 142.47 155.18 142.47C149.26 142.437 144.743 140.323 141.63 136.13ZM159.82 129.51C160.773 127.163 161.247 123.31 161.24 117.95C161.24 112.67 160.77 108.88 159.82 106.55C158.87 104.22 157.32 103.07 155.15 103.07C152.98 103.07 151.44 104.23 150.49 106.55C149.54 108.87 149.07 112.67 149.07 117.95C149.07 123.23 149.54 127.16 150.49 129.51C151.44 131.86 153 133 155.15 133C157.3 133 158.87 131.85 159.82 129.51Z" fill="white"/>
<path d="M110.94 155.56H115.19V175.15H110.94V166.92H101.94V175.15H97.6602V155.56H101.91V163.48H110.91L110.94 155.56Z" fill="white"/>
<path d="M136.8 175.15L134.94 170.81H125.83L124 175.15H119.64L128.64 155.56H132.11L141.11 175.15H136.8ZM127.25 167.54H133.53L130.39 160.2L127.25 167.54Z" fill="white"/>
<path d="M162.5 175.15H157.78L154.39 168.9C154.154 168.482 153.808 168.136 153.39 167.9C152.932 167.669 152.423 167.558 151.91 167.58H149.78V175.19H145.5V155.56H154.5C156.362 155.428 158.21 155.968 159.71 157.08C160.312 157.63 160.782 158.309 161.087 159.065C161.391 159.821 161.522 160.636 161.47 161.45C161.516 162.798 161.076 164.119 160.23 165.17C159.338 166.222 158.108 166.929 156.75 167.17C157.306 167.34 157.822 167.623 158.266 167.999C158.709 168.376 159.071 168.839 159.33 169.36L162.5 175.15ZM156.55 163.6C157.088 163.055 157.39 162.321 157.39 161.555C157.39 160.789 157.088 160.055 156.55 159.51C155.745 159.014 154.802 158.79 153.86 158.87H149.72V164.26H153.86C154.805 164.34 155.749 164.108 156.55 163.6Z" fill="white"/>
<path d="M167.75 175.15V155.56H172.08V175.15H167.75Z" fill="white"/>
<path d="M135 245.71C113.104 245.71 91.6991 239.217 73.4929 227.052C55.2867 214.887 41.0968 197.597 32.7174 177.367C24.338 157.137 22.1456 134.877 26.4174 113.402C30.6891 91.926 41.2332 72.1994 56.7163 56.7163C72.1994 41.2332 91.926 30.6891 113.402 26.4174C134.877 22.1456 157.137 24.338 177.367 32.7174C197.597 41.0968 214.887 55.2867 227.052 73.4929C239.217 91.6991 245.71 113.104 245.71 135C245.678 164.352 234.004 192.494 213.249 213.249C192.494 234.004 164.352 245.678 135 245.71ZM135 25.2901C113.302 25.2901 92.0902 31.7245 74.0485 43.7796C56.0068 55.8346 41.945 72.969 33.6413 93.0159C25.3376 113.063 23.165 135.122 27.3981 156.403C31.6313 177.685 42.0802 197.234 57.4234 212.577C72.7666 227.92 92.3151 238.369 113.597 242.602C134.878 246.835 156.937 244.663 176.984 236.359C197.031 228.055 214.166 213.993 226.221 195.952C238.276 177.91 244.71 156.699 244.71 135C244.678 105.913 233.109 78.0262 212.542 57.4585C191.974 36.8908 164.087 25.3219 135 25.2901Z" fill="white"/>
<path d="M135 213.14C119.546 213.14 104.438 208.557 91.5881 199.971C78.7381 191.385 68.7227 179.181 62.8084 164.903C56.8942 150.625 55.3468 134.913 58.3618 119.756C61.3769 104.598 68.819 90.6746 79.7471 79.7466C90.6751 68.8185 104.598 61.3764 119.756 58.3613C134.914 55.3463 150.625 56.8937 164.903 62.808C179.181 68.7222 191.385 78.7376 199.971 91.5876C208.558 104.438 213.14 119.545 213.14 135C213.119 155.717 204.88 175.58 190.23 190.23C175.581 204.879 155.718 213.119 135 213.14ZM135 57.8599C119.744 57.8599 104.829 62.3841 92.1437 70.8603C79.4581 79.3366 69.5709 91.3842 63.7323 105.48C57.8938 119.575 56.3661 135.085 59.3426 150.049C62.3191 165.013 69.6659 178.758 80.4542 189.546C91.2424 200.334 104.987 207.681 119.951 210.658C134.915 213.634 150.425 212.107 164.521 206.268C178.616 200.429 190.664 190.542 199.14 177.857C207.616 165.171 212.14 150.257 212.14 135C212.119 114.548 203.985 94.939 189.523 80.4771C175.061 66.0151 155.453 57.8811 135 57.8599Z" fill="white"/>
<path d="M76.8198 60.5601L84.2498 68.2601C83.7783 69.4822 83.1569 70.641 82.3998 71.71C81.5614 72.9261 80.6033 74.0551 79.5398 75.0801C78.0704 76.5605 76.2611 77.6591 74.2698 78.28C72.4704 78.8092 70.553 78.7813 68.7698 78.2C66.8305 77.4846 65.0778 76.3406 63.6424 74.8532C62.2069 73.3658 61.1259 71.5735 60.4798 69.6101C59.956 67.8167 59.9839 65.9073 60.5598 64.13C61.2109 62.2144 62.3357 60.4944 63.8298 59.1301C64.8916 58.0875 66.1096 57.217 67.4398 56.55C68.5855 55.9788 69.8326 55.6389 71.1098 55.55L72.3998 59C71.2874 59.1481 70.2026 59.458 69.1798 59.92C68.2302 60.3834 67.3622 60.9981 66.6098 61.7401C63.5698 64.6601 63.7498 67.8867 67.1498 71.42C68.8998 73.23 70.5998 74.21 72.2498 74.34C73.1638 74.3643 74.0722 74.189 74.9115 73.8263C75.7509 73.4636 76.5011 72.9223 77.1098 72.24C77.9751 71.4018 78.7311 70.4577 79.3598 69.43L75.9998 66L72.9198 69L70.5998 66.59L76.8198 60.5601Z" fill="white"/>
<path d="M97.1798 46.5999C98.0124 46.9477 98.767 47.4587 99.399 48.1027C100.031 48.7468 100.528 49.5108 100.86 50.3499L104.86 58.3499L100.86 60.3499L99.8598 58.3499C99.9353 59.1716 99.7347 59.995 99.2898 60.6899C98.8033 61.4468 98.1089 62.0475 97.2898 62.4199C96.4255 62.8632 95.4711 63.1027 94.4998 63.1199C93.6203 63.1138 92.7579 62.8758 91.9998 62.4299C91.2425 61.9866 90.6336 61.329 90.2498 60.5399C89.7713 59.7113 89.6248 58.7322 89.8398 57.7999C90.1753 56.8048 90.8156 55.9406 91.6698 55.3299C93.0504 54.2733 94.5426 53.3712 96.1198 52.6399L96.8398 52.2799L96.5898 51.7799C96.4696 51.4563 96.2855 51.1603 96.0484 50.9094C95.8113 50.6586 95.5261 50.4581 95.2098 50.3199C94.4897 50.1988 93.7501 50.3446 93.1298 50.7299C92.399 51.1221 91.726 51.6134 91.1298 52.1899C90.4407 52.8389 89.8268 53.5635 89.2998 54.3499L86.7998 52.0999C87.4062 51.1214 88.1467 50.2328 88.9998 49.4599C89.9003 48.6385 90.9098 47.9453 91.9998 47.3999C93.9998 46.3899 95.7398 46.1199 97.1798 46.5999ZM98.3898 57.2699C98.6057 56.4306 98.4949 55.5406 98.0798 54.7799L97.8498 54.2999L97.3698 54.5399C96.2662 55.0058 95.2513 55.6587 94.3698 56.4699C94.1395 56.6923 93.9899 56.9851 93.9447 57.302C93.8994 57.6189 93.961 57.9419 94.1198 58.2199C94.2268 58.457 94.3828 58.6687 94.5776 58.841C94.7724 59.0134 95.0015 59.1425 95.2498 59.2199C95.5024 59.3034 95.7694 59.334 96.0344 59.3099C96.2993 59.2859 96.5564 59.2075 96.7898 59.0799C97.1739 58.9155 97.5167 58.6679 97.7934 58.3549C98.0701 58.0419 98.2738 57.6713 98.3898 57.2699Z" fill="white"/>
<path d="M121.65 41.8799L119.13 42.7099C118.132 42.9375 117.255 43.5295 116.67 44.3699C116.27 45.1579 116.174 46.0655 116.4 46.9199L118.08 54.6799L113.51 55.6799L110.28 40.7999L114.67 39.7999L115.22 42.3199C115.59 40.4399 116.94 39.1599 119.22 38.4899L120.54 38.1099L121.65 41.8799Z" fill="white"/>
<path d="M143.46 39.09C144.023 39.785 144.443 40.5847 144.695 41.4429C144.947 42.3011 145.027 43.2008 144.93 44.09L144.65 53.09L140.22 53L140.29 50.74C139.968 51.4999 139.401 52.1301 138.68 52.53C137.9 52.9676 137.012 53.1723 136.12 53.12C135.152 53.1027 134.2 52.8632 133.34 52.42C132.543 52.0095 131.875 51.3865 131.41 50.62C130.95 49.8695 130.724 48.9993 130.76 48.12C130.729 47.1638 131.061 46.2314 131.69 45.51C132.463 44.7977 133.437 44.3403 134.48 44.2C136.191 43.9231 137.928 43.8326 139.66 43.93H140.47V43.37C140.513 43.0276 140.489 42.68 140.398 42.3471C140.307 42.0142 140.151 41.7025 139.94 41.43C139.369 40.9898 138.659 40.7697 137.94 40.81C137.098 40.8017 136.26 40.9128 135.45 41.14C134.535 41.3723 133.649 41.7078 132.81 42.14L131.66 39C132.679 38.4333 133.773 38.0125 134.91 37.75C136.07 37.4408 137.269 37.2961 138.47 37.32C140.3 37.2339 142.092 37.8694 143.46 39.09ZM139.46 49.09C140.055 48.4574 140.381 47.6185 140.37 46.75V46.22H139.84C138.655 46.1184 137.462 46.2164 136.31 46.51C136.002 46.6 135.732 46.7888 135.542 47.0472C135.353 47.3057 135.253 47.6194 135.26 47.94C135.245 48.1989 135.285 48.458 135.376 48.7007C135.468 48.9434 135.608 49.1646 135.79 49.35C135.976 49.5402 136.198 49.6912 136.444 49.7942C136.69 49.8973 136.953 49.9502 137.22 49.95C137.637 49.9793 138.056 49.9146 138.446 49.7606C138.835 49.6065 139.185 49.3671 139.47 49.06L139.46 49.09Z" fill="white"/>
<path d="M170.729 45.4001C171.246 47.0401 171.171 48.8091 170.52 50.4001L167.71 59.1301L163.249 57.7001L165.999 49.1601C166.309 48.4222 166.362 47.6016 166.149 46.8301C166.015 46.5252 165.812 46.2559 165.555 46.0441C165.298 45.8322 164.994 45.6835 164.669 45.6101C164.264 45.4574 163.83 45.3927 163.397 45.4203C162.965 45.4479 162.543 45.5671 162.16 45.7701C161.37 46.2271 160.795 46.9788 160.559 47.8601L157.939 56.0001L153.479 54.5601L158.16 40.0701L162.49 41.4701L161.829 43.5401C162.564 42.9258 163.453 42.5247 164.399 42.3801C165.407 42.2278 166.436 42.3204 167.399 42.6501C168.125 42.8304 168.8 43.1711 169.377 43.647C169.953 44.1229 170.415 44.722 170.729 45.4001Z" fill="white"/>
<path d="M177.49 64.1399C176.74 63.3103 176.141 62.3559 175.72 61.3199L178.53 59.3199C178.925 60.2524 179.45 61.1243 180.09 61.9099C180.731 62.719 181.493 63.4241 182.35 63.9999C182.82 64.3443 183.371 64.5614 183.95 64.6299C184.157 64.6476 184.364 64.6074 184.55 64.5138C184.735 64.4202 184.891 64.2769 185 64.0999C185.106 63.9587 185.174 63.7918 185.195 63.6161C185.216 63.4404 185.19 63.2623 185.12 63.0999C184.874 62.597 184.535 62.1456 184.12 61.7699L182.36 59.9999C181.468 59.1721 180.824 58.1127 180.5 56.9399C180.413 56.428 180.431 55.9038 180.551 55.3988C180.671 54.8937 180.892 54.4179 181.2 53.9999C181.682 53.2309 182.412 52.649 183.27 52.3499C184.2 52.0489 185.194 52.0006 186.15 52.2099C187.295 52.4567 188.381 52.9218 189.35 53.5799C190.253 54.176 191.059 54.9079 191.74 55.7499C192.398 56.5628 192.924 57.4739 193.3 58.4499L190.56 60.3599C189.973 58.745 188.905 57.3489 187.5 56.3599C187.022 56.0086 186.459 55.7911 185.87 55.7299C185.654 55.7094 185.438 55.7491 185.243 55.8444C185.049 55.9397 184.885 56.087 184.77 56.2699C184.683 56.3915 184.627 56.5323 184.606 56.6802C184.585 56.8282 184.6 56.979 184.65 57.1199C184.846 57.5509 185.117 57.9436 185.45 58.2799L187.27 60.1899C188.217 61.0534 188.909 62.1603 189.27 63.3899C189.361 63.912 189.346 64.4472 189.224 64.963C189.102 65.4789 188.876 65.9644 188.56 66.3899C188.208 66.9681 187.715 67.4475 187.127 67.7833C186.54 68.1191 185.876 68.3003 185.2 68.3099C183.496 68.283 181.845 67.7196 180.48 66.6999C179.369 65.989 178.363 65.1275 177.49 64.1399Z" fill="white"/>
<path d="M192.25 75.7601L203.1 65.0901L206.38 68.4301L195.53 79.1001L192.25 75.7601ZM208.25 59.8501L211.77 63.4301L208.65 66.4901L205.13 62.9101L208.25 59.8501Z" fill="white"/>
<path d="M40.7897 168.85C41.2419 167.851 41.8928 166.955 42.7025 166.216C43.5122 165.476 44.4639 164.91 45.4997 164.55L55.7697 160.13L57.4097 163.92L46.9997 168.42C45.827 168.83 44.8451 169.655 44.2397 170.74C43.8607 171.794 43.8979 172.953 44.3439 173.98C44.7898 175.008 45.6109 175.827 46.6397 176.27C47.8405 176.583 49.1146 176.444 50.2197 175.88L60.6597 171.39L62.2897 175.18L51.9997 179.6C51.0253 180.102 49.9592 180.401 48.8659 180.478C47.7726 180.555 46.675 180.41 45.6397 180.05C43.712 178.977 42.193 177.297 41.3194 175.272C40.4458 173.246 40.2666 170.988 40.8097 168.85H40.7897Z" fill="white"/>
<path d="M66.0594 192.31C65.8933 193.077 65.5761 193.804 65.1263 194.448C64.6765 195.092 64.1031 195.64 63.4394 196.06L57.1794 200.76L54.8594 197.68L56.4294 196.49C55.7402 196.689 55.0039 196.65 54.3394 196.38C53.6191 196.083 52.9958 195.591 52.5394 194.96C52.0343 194.287 51.692 193.507 51.5394 192.68C51.3833 191.915 51.4422 191.123 51.7094 190.39C51.9532 189.673 52.4017 189.044 52.9994 188.58C53.6369 188.047 54.4491 187.769 55.2794 187.8C56.1957 187.933 57.0463 188.353 57.7094 189C58.8263 190.017 59.832 191.15 60.7094 192.38L61.1294 192.94L61.5194 192.64C61.7723 192.484 61.9912 192.279 62.163 192.037C62.3348 191.794 62.4561 191.52 62.5194 191.23C62.5122 190.592 62.2701 189.98 61.8394 189.51C61.3999 188.936 60.8814 188.428 60.2994 188C59.6378 187.506 58.9194 187.093 58.1594 186.77L59.6894 184.27C60.628 184.655 61.5095 185.166 62.3094 185.79C63.1517 186.419 63.9023 187.163 64.5394 188C65.5948 189.18 66.1412 190.729 66.0594 192.31ZM57.0594 195.04C57.8153 195.098 58.5644 194.862 59.1494 194.38L59.5194 194.1L59.2394 193.73C58.666 192.87 57.9489 192.116 57.1194 191.5C56.8923 191.338 56.6179 191.256 56.3392 191.267C56.0605 191.278 55.7933 191.381 55.5794 191.56C55.395 191.691 55.2402 191.859 55.1248 192.054C55.0094 192.248 54.936 192.465 54.9094 192.69C54.8796 192.918 54.896 193.15 54.9579 193.371C55.0198 193.593 55.1257 193.8 55.2694 193.98C55.4821 194.275 55.7573 194.519 56.0754 194.695C56.3935 194.872 56.7466 194.976 57.1094 195L57.0594 195.04Z" fill="white"/>
<path d="M80.65 206.35C80.5049 207.839 79.8475 209.232 78.79 210.29L73.57 216.34L70.48 213.68L75.57 207.77C76.0669 207.281 76.3871 206.641 76.48 205.95C76.4749 205.659 76.4029 205.373 76.2693 205.115C76.1357 204.856 75.9443 204.632 75.71 204.46C75.4354 204.201 75.1087 204.004 74.7517 203.881C74.3947 203.759 74.0157 203.714 73.64 203.75C73.2487 203.798 72.8707 203.922 72.5275 204.116C72.1843 204.31 71.8828 204.569 71.64 204.88L66.8 210.5L63.71 207.84L72.37 197.84L75.37 200.43L74.14 201.86C74.9412 201.635 75.7887 201.635 76.59 201.86C77.4337 202.051 78.2192 202.442 78.88 203C79.4096 203.388 79.8442 203.891 80.1508 204.471C80.4575 205.051 80.6281 205.694 80.65 206.35Z" fill="white"/>
<path d="M99.7998 216.47L94.2898 226.93C93.9276 227.751 93.3912 228.485 92.7179 229.078C92.0445 229.672 91.2501 230.113 90.3898 230.37C88.4679 230.712 86.4872 230.331 84.8298 229.3C83.8075 228.757 82.8597 228.085 82.0098 227.3C81.2252 226.602 80.5508 225.79 80.0098 224.89L82.2698 222.89C83.2327 224.401 84.56 225.646 86.1298 226.51C88.1298 227.55 89.6098 227.136 90.5698 225.27L91.2498 223.98C90.5775 224.414 89.7902 224.637 88.9898 224.62C88.1092 224.613 87.2438 224.39 86.4698 223.97C85.5072 223.481 84.6977 222.738 84.1298 221.82C83.5962 220.912 83.3293 219.872 83.3598 218.82C83.4135 217.616 83.7565 216.443 84.3598 215.4C84.8951 214.326 85.6763 213.394 86.6398 212.68C87.5002 212.052 88.5225 211.683 89.5857 211.618C90.6489 211.552 91.7087 211.792 92.6398 212.31C93.4178 212.702 94.0849 213.283 94.5798 214C95.0462 214.653 95.3137 215.428 95.3498 216.23L96.2198 214.58L99.7998 216.47ZM91.3798 222C92.1912 221.571 92.8544 220.907 93.2826 220.096C93.7108 219.284 93.8841 218.362 93.7798 217.45C93.6826 217.044 93.4943 216.666 93.2292 216.343C92.9641 216.021 92.6292 215.763 92.2498 215.59C91.8891 215.373 91.4841 215.241 91.065 215.202C90.6459 215.164 90.2236 215.222 89.8298 215.37C89.0133 215.787 88.3455 216.446 87.9177 217.256C87.4899 218.067 87.323 218.99 87.4398 219.9C87.5339 220.317 87.7238 220.707 87.9946 221.039C88.2653 221.37 88.6094 221.634 88.9998 221.81C89.3577 222.016 89.7568 222.139 90.1684 222.172C90.58 222.205 90.9937 222.146 91.3798 222Z" fill="white"/>
<path d="M133.41 237.22L128.41 236.64L121.2 227L120.2 235.72L116.02 235.24L118.2 216.33L122.38 216.81L121.38 225.13L130.28 217.73L135.22 218.3L125.38 226.3L133.41 237.22Z" fill="white"/>
<path d="M151.679 229.62L143.089 230.55C143.222 231.413 143.68 232.193 144.369 232.73C145.114 233.175 145.994 233.338 146.849 233.19C147.542 233.111 148.217 232.922 148.849 232.63C149.486 232.34 150.073 231.952 150.589 231.48L151.949 234.08C151.3 234.685 150.549 235.169 149.729 235.51C148.862 235.892 147.941 236.138 146.999 236.24C145.086 236.551 143.128 236.094 141.549 234.97C140.828 234.385 140.236 233.656 139.813 232.83C139.389 232.003 139.143 231.097 139.089 230.17C138.937 228.931 139.091 227.674 139.539 226.51C139.959 225.443 140.669 224.514 141.589 223.83C142.543 223.127 143.67 222.698 144.849 222.59C145.664 222.467 146.495 222.522 147.285 222.752C148.076 222.981 148.808 223.38 149.429 223.92C150.722 225.157 151.491 226.843 151.579 228.63L151.679 229.62ZM143.489 226.31C143.048 226.967 142.83 227.749 142.869 228.54L148.049 227.98C147.976 227.204 147.645 226.476 147.109 225.91C146.859 225.687 146.562 225.523 146.24 225.429C145.919 225.336 145.58 225.316 145.249 225.37C144.906 225.393 144.572 225.489 144.268 225.651C143.965 225.813 143.7 226.038 143.489 226.31Z" fill="white"/>
<path d="M175.8 215.25C177.018 216.109 177.913 217.352 178.34 218.78L181.21 226.24L177.4 227.71L174.58 220.37C174.391 219.723 174.015 219.146 173.5 218.71C173.268 218.574 173.005 218.499 172.736 218.49C172.467 218.481 172.201 218.54 171.96 218.66C171.634 218.768 171.337 218.951 171.094 219.194C170.851 219.437 170.668 219.734 170.56 220.06C170.358 220.844 170.433 221.674 170.77 222.41L173.39 229.24L169.59 230.71L166.77 223.37C166.581 222.72 166.201 222.142 165.68 221.71C165.45 221.574 165.189 221.497 164.921 221.489C164.654 221.48 164.389 221.539 164.15 221.66C163.822 221.767 163.523 221.951 163.28 222.196C163.037 222.441 162.855 222.741 162.75 223.07C162.549 223.854 162.623 224.684 162.96 225.42L165.58 232.25L161.78 233.71L157 221.33L160.71 219.91L161.35 221.57C161.496 220.825 161.841 220.133 162.35 219.57C162.899 218.961 163.584 218.492 164.35 218.2C165.104 217.8 165.97 217.662 166.811 217.807C167.653 217.952 168.423 218.371 169 219C169.129 218.144 169.492 217.341 170.05 216.68C170.619 215.987 171.36 215.455 172.2 215.14C172.769 214.883 173.389 214.759 174.013 214.779C174.637 214.798 175.248 214.959 175.8 215.25Z" fill="white"/>
<path d="M191.539 203.86C192.611 203.787 193.681 204.027 194.619 204.55C195.705 205.15 196.642 205.987 197.359 207C198.12 207.992 198.652 209.139 198.919 210.36C199.154 211.431 199.081 212.548 198.709 213.58C198.334 214.59 197.666 215.464 196.789 216.09C196.102 216.609 195.299 216.952 194.449 217.09C193.665 217.221 192.86 217.124 192.129 216.81L193.299 218.39L190.069 220.79L178.739 205.49L182.019 203.06L186.519 209.14C186.44 208.364 186.59 207.582 186.949 206.89C187.335 206.136 187.893 205.485 188.579 204.99C189.434 204.331 190.463 203.939 191.539 203.86ZM195.169 212.17C195.129 211.156 194.753 210.185 194.099 209.41C193.569 208.579 192.766 207.957 191.829 207.65C191.419 207.571 190.997 207.579 190.59 207.673C190.183 207.767 189.801 207.945 189.467 208.196C189.132 208.446 188.854 208.763 188.65 209.127C188.445 209.491 188.319 209.894 188.279 210.31C188.301 211.299 188.653 212.253 189.279 213.02C189.82 213.867 190.636 214.503 191.589 214.82C191.999 214.905 192.421 214.902 192.83 214.811C193.238 214.72 193.622 214.544 193.957 214.293C194.292 214.042 194.569 213.724 194.771 213.357C194.973 212.991 195.095 212.587 195.129 212.17H195.169Z" fill="white"/>
<path d="M205.509 190.38C206.294 190.379 207.072 190.537 207.795 190.842C208.518 191.148 209.173 191.596 209.719 192.16L215.629 197.3L213.089 200.21L211.609 198.92C211.939 199.557 212.051 200.283 211.929 200.99C211.784 201.735 211.438 202.427 210.929 202.99C210.388 203.635 209.703 204.145 208.929 204.48C208.215 204.789 207.43 204.896 206.659 204.79C205.915 204.68 205.219 204.353 204.659 203.85C204.005 203.34 203.563 202.606 203.419 201.79C203.36 200.877 203.588 199.968 204.069 199.19C204.825 197.878 205.724 196.654 206.749 195.54L207.209 195.01L206.839 194.69C206.635 194.469 206.387 194.293 206.112 194.171C205.837 194.048 205.54 193.984 205.239 193.98C204.619 194.11 204.07 194.466 203.699 194.98C203.234 195.545 202.847 196.171 202.549 196.84C202.21 197.592 201.958 198.38 201.799 199.19L199.029 198.19C199.227 197.191 199.564 196.225 200.029 195.32C200.462 194.364 201.024 193.473 201.699 192.67C202.629 191.447 203.993 190.627 205.509 190.38ZM210.039 198.56C209.94 197.807 209.553 197.123 208.959 196.65L208.609 196.35L208.309 196.7C207.589 197.441 207 198.3 206.569 199.24C206.459 199.495 206.437 199.78 206.506 200.05C206.574 200.319 206.73 200.558 206.949 200.73C207.115 200.883 207.311 201 207.524 201.073C207.738 201.145 207.965 201.171 208.189 201.15C208.42 201.134 208.644 201.071 208.849 200.965C209.054 200.858 209.235 200.71 209.379 200.53C209.618 200.265 209.796 199.952 209.903 199.612C210.01 199.272 210.043 198.913 209.999 198.56H210.039Z" fill="white"/>
<path d="M220.73 189.81L204.5 179.86L206.63 176.39L222.86 186.33L220.73 189.81Z" fill="white"/>
<path d="M209 170.73L210.8 166.73L214.27 168.3L212.47 172.3L209 170.73ZM226.94 178.73L214.86 173.28L216.54 169.56L228.59 175L226.94 178.73Z" fill="white"/>
<path d="M41.0396 125.74L44.0496 131.84L50.7696 132.81L45.9096 137.56L47.0596 144.26L41.0396 141.09L35.0296 144.26L36.1696 137.56L31.3096 132.81L38.0296 131.84L41.0396 125.74Z" fill="white"/>
<path d="M228.81 125.74L231.82 131.84L238.55 132.81L233.68 137.56L234.83 144.26L228.81 141.09L222.8 144.26L223.95 137.56L219.08 132.81L225.81 131.84L228.81 125.74Z" fill="white"/>
<defs>
<linearGradient id="paint0_linear" x1="42.8684" y1="-140.841" x2="388.963" y2="95.0405" gradientUnits="userSpaceOnUse">
<stop stop-color="#0CD7FF"/>
<stop offset="0.204905" stop-color="#0B87D7"/>
<stop offset="0.486701" stop-color="#054677"/>
<stop offset="0.652163" stop-color="#04355F"/>
<stop offset="1" stop-color="#01152F"/>
</linearGradient>
</defs>
</svg>
