<svg width="40" height="40" viewBox="0 0 40 40" fill="none" xmlns="http://www.w3.org/2000/svg">
<path d="M30.9292 15.7896C30.5471 13.9309 29.5753 12.245 28.1584 10.9828C26.7415 9.72056 24.955 8.94928 23.0646 8.78365C21.1742 8.61802 19.2809 9.06687 17.666 10.0635C16.0511 11.0601 14.801 12.5512 14.1015 14.3152H13.845C12.2853 14.3159 10.7861 14.9189 9.66035 15.9984C8.53457 17.0779 7.86919 18.5504 7.80308 20.1088C7.66292 20.0806 7.52104 20.0619 7.37838 20.0527C6.92572 19.9924 6.4654 20.0295 6.02826 20.1616C5.59112 20.2937 5.18724 20.5176 4.84368 20.8185C4.50013 21.1193 4.22482 21.4901 4.0362 21.906C3.84758 22.3219 3.75 22.7732 3.75 23.2299C3.75 23.6866 3.84758 24.1379 4.0362 24.5538C4.22482 24.9697 4.50013 25.3405 4.84368 25.6413C5.18724 25.9422 5.59112 26.1661 6.02826 26.2982C6.4654 26.4303 6.92572 26.4674 7.37838 26.4071H30.9372C32.3463 26.4071 33.6976 25.8474 34.6939 24.8511C35.6903 23.8547 36.25 22.5034 36.25 21.0944C36.25 19.6853 35.6903 18.334 34.6939 17.3377C33.6976 16.3414 32.3463 15.7816 30.9372 15.7816L30.9292 15.7896Z" stroke="#007AFF" stroke-width="2" stroke-linejoin="round"/>
<path d="M9.69434 30.9666H30.705" stroke="#007AFF" stroke-width="2" stroke-linecap="round" stroke-linejoin="round"/>
</svg>
