<svg width="40" height="40" viewBox="0 0 40 40" fill="none" xmlns="http://www.w3.org/2000/svg">
<path d="M12.5 10H7.50975C6.30871 10 5.79882 11.5288 6.75939 12.2497L19.2496 21.6243C19.6942 21.958 20.3057 21.958 20.7503 21.6243L33.2405 12.2497C34.2011 11.5288 33.6912 10 32.4901 10H28.75" stroke="#007AFF" stroke-width="2" stroke-linecap="round" stroke-linejoin="round"/>
<path d="M6.25 10.9375V27.6875C6.25 28.7921 7.14543 29.6875 8.25 29.6875H31.75C32.8546 29.6875 33.75 28.7921 33.75 27.6875V10.9375" stroke="#007AFF" stroke-width="2"/>
<path d="M20.654 16.0599C19.5136 16.0599 18.5169 15.8303 17.6638 15.3711C16.8107 14.9203 16.1534 14.2868 15.6921 13.4703C15.2307 12.6539 15 11.7142 15 10.6511C15 9.49455 15.2437 8.49104 15.7312 7.6406C16.2274 6.79017 16.9021 6.13958 17.7552 5.68885C18.617 5.22962 19.5876 5 20.6671 5C21.7987 5 22.7694 5.21261 23.5789 5.63783C24.3972 6.06304 25.0153 6.63284 25.4331 7.3472C25.851 8.06157 26.0599 8.84822 26.0599 9.70716C26.0599 10.4811 25.938 11.1359 25.6943 11.6717C25.4505 12.2074 25.1241 12.6071 24.715 12.8708C24.3145 13.1344 23.8662 13.2662 23.37 13.2662C22.9086 13.2662 22.5387 13.1684 22.2601 12.9728C21.9859 12.7803 21.8213 12.5177 21.7664 12.1851C21.7649 12.176 21.7571 12.1692 21.7478 12.1692C21.7416 12.1692 21.7357 12.1724 21.7322 12.1776C21.2454 12.9033 20.6074 13.2662 19.8183 13.2662C19.2002 13.2662 18.7084 13.0621 18.3428 12.6539C17.9859 12.2372 17.8074 11.6802 17.8074 10.9828C17.8074 10.3875 17.9206 9.83898 18.1469 9.33722C18.382 8.83546 18.7084 8.44001 19.1262 8.15086C19.5528 7.85321 20.0316 7.70438 20.5626 7.70438C20.9369 7.70438 21.2634 7.78518 21.5419 7.94676C21.8254 8.1062 22.0199 8.3236 22.1253 8.59897C22.1279 8.60564 22.1343 8.6101 22.1414 8.6101C22.1497 8.6101 22.1567 8.60421 22.1582 8.5961L22.2691 7.99565C22.2866 7.90079 22.3693 7.83195 22.4657 7.83195H23.261C23.3858 7.83195 23.4801 7.94493 23.4578 8.06769L22.9261 10.9956C22.8912 11.1742 22.8738 11.357 22.8738 11.5441C22.8738 11.8077 22.9304 12.0033 23.0436 12.1309C23.1567 12.2585 23.3395 12.3222 23.592 12.3222C23.7922 12.3222 23.9924 12.2372 24.1927 12.0671C24.3929 11.8885 24.5626 11.6036 24.7019 11.2124C24.8412 10.8212 24.9108 10.3195 24.9108 9.70716C24.9108 9.0098 24.7498 8.38473 24.4277 7.83195C24.1143 7.27066 23.6355 6.82844 22.9913 6.50527C22.3559 6.1821 21.5811 6.02052 20.6671 6.02052C19.814 6.02052 19.0479 6.20337 18.3689 6.56905C17.6986 6.93474 17.1676 7.46626 16.7759 8.16362C16.3928 8.86098 16.2013 9.69015 16.2013 10.6511C16.2013 11.5356 16.3798 12.3095 16.7367 12.9728C17.0936 13.6277 17.6072 14.1337 18.2775 14.4909C18.9478 14.8565 19.74 15.0394 20.654 15.0394C21.333 15.0394 21.9163 14.9543 22.4037 14.7843C22.8514 14.6281 23.1963 14.4145 23.4384 14.1435C23.479 14.0981 23.5361 14.0699 23.597 14.0699H24.7213C24.8752 14.0699 24.9693 14.2355 24.8775 14.359C24.528 14.8291 24.0298 15.2132 23.3831 15.5114C22.617 15.8771 21.7073 16.0599 20.654 16.0599ZM20.0795 12.3222C20.4538 12.3222 20.7759 12.2074 21.0457 11.9778C21.3243 11.7482 21.5332 11.4506 21.6725 11.0849C21.8205 10.7192 21.8945 10.3365 21.8945 9.93678C21.8945 9.52006 21.7944 9.2054 21.5942 8.99279C21.3939 8.77168 21.1154 8.66112 20.7585 8.66112C20.4016 8.66112 20.0882 8.77593 19.8183 9.00555C19.5572 9.22666 19.3569 9.51581 19.2177 9.87299C19.0871 10.2217 19.0218 10.5874 19.0218 10.9701C19.0218 11.3868 19.1175 11.7184 19.3091 11.9651C19.5093 12.2032 19.7661 12.3222 20.0795 12.3222Z" fill="#007AFF"/>
</svg>
