<svg width="92" height="92" viewBox="0 0 92 92" fill="none" xmlns="http://www.w3.org/2000/svg">
<path d="M46 92C71.4051 92 92 71.4051 92 46C92 20.5949 71.4051 0 46 0C20.5949 0 0 20.5949 0 46C0 71.4051 20.5949 92 46 92Z" fill="url(#paint0_linear)"/>
<g clip-path="url(#clip0)">
<path d="M46.0041 26.0078H45.996C34.9526 26.0078 26 34.9605 26 46.0038C26 57.0475 34.9526 65.9998 45.996 65.9998H46.0041C57.0475 65.9998 66.0001 57.0475 66.0001 46.0038C66.0001 34.9605 57.0475 26.0078 46.0041 26.0078ZM63.1644 38.6719H54.3189C53.803 36.8211 53.0841 35.0327 52.1748 33.3397H59.6967C61.1482 34.9064 62.3212 36.7098 63.1644 38.6719ZM45.998 27.5583C47.4553 28.8735 48.7402 30.3683 49.8211 32.0066H42.1794C43.2589 30.3683 44.5419 28.8735 45.998 27.5583ZM40.5824 32.0066H33.6791C36.6144 29.4108 40.2953 27.8089 44.1956 27.4304C42.816 28.8087 41.6033 30.3448 40.5824 32.0066ZM47.8036 27.4291C51.7071 27.8063 55.3913 29.4085 58.3288 32.0066H51.4191C50.3975 30.3442 49.1842 28.8077 47.8036 27.4291ZM50.6471 33.3397C51.6205 35.0207 52.3925 36.8103 52.9474 38.6719H39.0602C39.6122 36.8107 40.3825 35.0207 41.3544 33.3397H50.6471ZM32.3116 33.3397H39.8273C38.9196 35.0327 38.2023 36.8211 37.6884 38.6719H28.8435C29.6868 36.7098 30.8597 34.9064 32.3116 33.3397ZM28.3355 40.005H63.6725C64.9984 43.8945 64.9984 48.1134 63.6725 52.0026H28.3355C27.0096 48.1134 27.0096 43.8945 28.3355 40.005ZM45.9986 64.4497C44.5425 63.1345 43.2589 61.6397 42.1794 60.001H49.8211C48.7402 61.6397 47.4553 63.1345 45.998 64.4497H45.9986ZM51.4191 60.001H58.3288C55.3896 62.6004 51.7032 64.2027 47.7977 64.5789C49.1803 63.2002 50.3958 61.6638 51.4191 60.001ZM44.1956 64.5776C40.2953 64.1987 36.6144 62.5972 33.6791 60.001H40.5824C41.6033 61.6631 42.816 63.1989 44.1956 64.5776ZM41.3544 58.6679C40.3825 56.987 39.6122 55.1973 39.0602 53.3357H52.9474C52.3925 55.1973 51.6205 56.987 50.6471 58.6679H41.3544ZM28.8435 53.3357H37.6884C38.2023 55.1866 38.9196 56.9749 39.8273 58.6679H32.3116C30.8597 57.1015 29.6868 55.2979 28.8435 53.3357ZM59.6967 58.6679H52.1748C53.0841 56.9753 53.803 55.1869 54.3189 53.3357H63.1644C62.3212 55.2979 61.1482 57.1015 59.6967 58.6679Z" fill="white"/>
<path d="M31.3632 49.512C31.4416 49.799 31.7004 49.9995 31.9978 50.0031H32.0066C32.3008 50.0031 32.5606 49.8101 32.6452 49.5279L34.0062 44.9907L35.3673 49.5279C35.4516 49.8101 35.7113 50.0031 36.0058 50.0031H36.0143C36.3118 49.9995 36.5708 49.799 36.6489 49.512L38.6485 42.1801L37.362 41.8296L35.9749 46.9152L34.6418 42.4802C34.5575 42.198 34.2978 42.0047 34.0033 42.0047C33.7091 42.0047 33.4494 42.198 33.3648 42.4802L32.0317 46.9152L30.6449 41.8296L29.3584 42.1801L31.3632 49.512Z" fill="white"/>
<path d="M43.9939 50.0031H44.0027C44.2969 50.0031 44.5566 49.8101 44.6413 49.5279L46.0023 44.9907L47.3634 49.5279C47.4477 49.8101 47.7074 50.0031 48.0019 50.0031H48.0104C48.3078 49.9995 48.5669 49.799 48.645 49.512L50.6446 42.1801L49.3581 41.8296L47.971 46.9152L46.6379 42.4802C46.5536 42.198 46.2939 42.0047 45.9994 42.0047C45.7052 42.0047 45.4455 42.198 45.3608 42.4802L44.0278 46.9152L42.641 41.8296L41.3545 42.1801L43.3541 49.512C43.4328 49.801 43.6945 50.0018 43.9939 50.0031Z" fill="white"/>
<path d="M55.9939 50.0031H56.0027C56.2969 50.0031 56.5567 49.8101 56.6413 49.5279L58.0023 44.9907L59.3634 49.5279C59.4477 49.8101 59.7074 50.0031 60.0019 50.0031H60.0104C60.3079 49.9995 60.5669 49.799 60.645 49.512L62.6446 42.1801L61.3581 41.8296L59.971 46.9152L58.6379 42.4802C58.5537 42.198 58.2939 42.0047 57.9994 42.0047C57.7052 42.0047 57.4455 42.198 57.3609 42.4802L56.0278 46.9152L54.641 41.8296L53.3545 42.1801L55.3541 49.512C55.4329 49.801 55.6945 50.0018 55.9939 50.0031Z" fill="white"/>
</g>
<defs>
<linearGradient id="paint0_linear" x1="27.5" y1="2.89504e-06" x2="92" y2="116" gradientUnits="userSpaceOnUse">
<stop stop-color="#0CD7FF"/>
<stop offset="0.356067" stop-color="#0B87D7"/>
<stop offset="1" stop-color="#01152F"/>
</linearGradient>
<clipPath id="clip0">
<rect width="40" height="40" fill="white" transform="translate(26 26)"/>
</clipPath>
</defs>
</svg>
