<svg width="40" height="40" viewBox="0 0 40 40" fill="none" xmlns="http://www.w3.org/2000/svg">
<circle cx="19.9999" cy="20" r="15.0003" stroke="#007AFF" stroke-width="2"/>
<path fill-rule="evenodd" clip-rule="evenodd" d="M32.4292 11.6246C32.8782 12.2842 33.2728 12.9792 33.6089 13.7028C34.5278 15.6801 35.0025 17.8348 34.9995 20.0153C34.9997 20.0962 34.9992 20.1771 34.998 20.2579C34.9995 20.1721 35.0002 20.0861 35.0002 20C35.0002 11.9979 28.7344 5.4593 20.8414 5.02284C22.4014 5.11036 23.9395 5.44479 25.3979 6.01527C28.0392 7.04095 30.3379 8.79008 32.0308 11.0621C32.0749 11.1245 32.12 11.1869 32.165 11.2492L32.1653 11.2496C32.2556 11.3746 32.3459 11.4996 32.4292 11.6246ZM19.9998 4.99963C20.0021 4.99963 20.0044 4.99963 20.0067 4.99964L19.9998 4.99963ZM20.0067 4.99964C20.0017 4.99964 19.9967 4.99964 19.9917 4.99965L20.0067 4.99964ZM34.9867 20.6408C34.9662 21.1113 34.9209 21.5805 34.8511 22.0465C34.1714 27.1012 30.9448 31.3668 26.5151 33.5074C26.3745 33.5778 26.2417 33.6403 26.1011 33.7028L27.8433 28.5699L30.8901 19.7575C31.6558 17.8278 31.9136 16.2887 31.9136 14.9293C31.9136 14.7807 31.9157 14.6393 31.9178 14.4987V14.4987V14.4986V14.4986V14.4986C31.9227 14.1735 31.9276 13.8532 31.9058 13.4606V13.4137C31.8198 12.0309 31.1479 9.99965 29.1011 10.0543H28.9292C27.6011 10.0543 26.6636 11.2106 26.6636 12.4528C26.6636 13.4577 27.1968 14.3261 27.8064 15.319L27.8068 15.3198L27.8076 15.321L27.8088 15.323C27.8666 15.4171 27.9251 15.5124 27.9839 15.609C28.4995 16.5075 29.1011 17.6637 29.1011 19.3278C29.1011 20.484 28.7573 21.9293 28.0776 23.6793L26.7261 28.1793L21.8589 13.6793C22.6714 13.6403 23.3979 13.5543 23.3979 13.5543C24.1323 13.4684 24.0386 12.3981 23.312 12.445C23.312 12.445 21.1323 12.6168 19.7183 12.6168C18.3901 12.6168 16.1636 12.445 16.1636 12.445C15.4448 12.3981 15.3511 13.5153 16.0854 13.5543C16.0854 13.5543 16.7651 13.6403 17.4995 13.6793L19.5933 19.4293L16.6401 28.2809L11.7261 13.6715C12.5386 13.6325 13.2729 13.5465 13.2729 13.5465C13.9995 13.4606 13.9214 12.3903 13.187 12.4371C13.187 12.4371 11.0073 12.609 9.59326 12.609C9.43687 12.609 8.06194 12.609 6.95264 12.6012C7.35483 11.8995 7.81199 11.2307 8.31982 10.6012C9.72169 8.85307 11.4983 7.44214 13.5185 6.47261C15.3229 5.60667 17.2804 5.11259 19.2746 5.01686C11.329 5.3951 5.00269 11.9554 4.99951 19.9939C5.00055 18.0345 5.53152 15.8651 6.31201 14.1012C6.52802 14.1126 6.66687 14.1092 6.82387 14.1055H6.82389H6.8239H6.82391H6.82391C6.99056 14.1015 7.17774 14.097 7.49951 14.109L14.7651 34.0543C14.5542 33.9762 14.3433 33.8903 14.1401 33.8043C10.0616 32.0684 6.89992 28.5786 5.61948 24.2817C7.05545 29.1117 10.8584 32.9227 15.6835 34.37L17.6636 28.6715H17.6714L20.2339 21.195L24.3667 32.5465C24.3756 32.5643 24.4489 32.7256 24.548 32.9435L24.5685 32.9887L24.5686 32.989C24.7293 33.3425 24.9475 33.8226 25.0775 34.1013C24.8744 34.1716 24.6714 34.2419 24.4683 34.3043C23.6404 34.5654 22.7906 34.751 21.9292 34.859C21.5071 34.9236 21.0821 34.966 20.6559 34.9862C28.4236 34.6519 34.6602 28.4104 34.9867 20.6408ZM20.1053 35C20.0648 35 20.0244 35 19.9839 34.9996C18.6783 34.999 17.3783 34.8283 16.1167 34.4918H16.113C17.3526 34.8235 18.6556 35.0003 19.9998 35.0003C20.035 35.0003 20.0702 35.0002 20.1053 35Z" fill="#007AFF"/>
</svg>
