<svg width="92" height="92" viewBox="0 0 92 92" fill="none" xmlns="http://www.w3.org/2000/svg">
<path d="M46 92C71.4051 92 92 71.4051 92 46C92 20.5949 71.4051 0 46 0C20.5949 0 0 20.5949 0 46C0 71.4051 20.5949 92 46 92Z" fill="url(#paint0_linear)"/>
<path d="M59.3897 41.68C58.9128 39.3604 57.7001 37.2566 55.9319 35.6814C54.1636 34.1062 51.9342 33.1437 49.5751 32.937C47.216 32.7303 44.8532 33.2904 42.838 34.5341C40.8227 35.7778 39.2626 37.6387 38.3897 39.84H38.0697C36.1232 39.8409 34.2523 40.5934 32.8474 41.9405C31.4425 43.2877 30.6122 45.1254 30.5297 47.07C30.3548 47.0349 30.1777 47.0115 29.9997 47C29.4348 46.9248 28.8603 46.9712 28.3148 47.136C27.7693 47.3008 27.2653 47.5803 26.8365 47.9557C26.4078 48.3312 26.0642 48.7939 25.8288 49.3129C25.5935 49.8319 25.4717 50.3952 25.4717 50.965C25.4717 51.5349 25.5935 52.0982 25.8288 52.6172C26.0642 53.1362 26.4078 53.5989 26.8365 53.9744C27.2653 54.3498 27.7693 54.6293 28.3148 54.7941C28.8603 54.9589 29.4348 55.0053 29.9997 54.93H59.3997C61.1581 54.93 62.8444 54.2315 64.0878 52.9882C65.3312 51.7448 66.0297 50.0584 66.0297 48.3C66.0297 46.5417 65.3312 44.8553 64.0878 43.6119C62.8444 42.3686 61.1581 41.67 59.3997 41.67L59.3897 41.68Z" stroke="white" stroke-width="2" stroke-linejoin="round"/>
<path d="M32.8896 59.0601H59.1096" stroke="white" stroke-width="2" stroke-linecap="round" stroke-linejoin="round"/>
<defs>
<linearGradient id="paint0_linear" x1="27.5" y1="2.89504e-06" x2="92" y2="116" gradientUnits="userSpaceOnUse">
<stop stop-color="#0CD7FF"/>
<stop offset="0.356067" stop-color="#0B87D7"/>
<stop offset="1" stop-color="#01152F"/>
</linearGradient>
</defs>
</svg>
