<svg width="40" height="40" viewBox="0 0 40 40" fill="none" xmlns="http://www.w3.org/2000/svg">
<path d="M33.3333 12.3848H6.66659C4.82564 12.3848 3.33325 13.8772 3.33325 15.7182V20.3432C3.33325 22.1841 4.82564 23.6765 6.66659 23.6765H33.3333C35.1742 23.6765 36.6666 22.1841 36.6666 20.3432V15.7182C36.6666 13.8772 35.1742 12.3848 33.3333 12.3848Z" stroke="#007AFF" stroke-width="2" stroke-linejoin="round"/>
<path d="M8.70825 18.0265H24.2999" stroke="#007AFF" stroke-width="2" stroke-linecap="round" stroke-linejoin="round"/>
<path d="M30.4833 19.4265C31.2565 19.4265 31.8832 18.7997 31.8832 18.0265C31.8832 17.2533 31.2565 16.6265 30.4833 16.6265C29.7101 16.6265 29.0833 17.2533 29.0833 18.0265C29.0833 18.7997 29.7101 19.4265 30.4833 19.4265Z" fill="#007AFF"/>
<path d="M23.5083 6.66815H27.1916C28.2924 6.6891 29.3486 7.10629 30.1666 7.84315L35.675 13.3515" stroke="#007AFF" stroke-width="2" stroke-linecap="round" stroke-linejoin="round"/>
<path d="M4.30005 13.3765L9.77505 7.84319C10.166 7.4568 10.6312 7.15352 11.1424 6.95159C11.6537 6.74966 12.2005 6.65326 12.75 6.66819H23.65" stroke="#007AFF" stroke-width="2" stroke-linecap="round" stroke-linejoin="round"/>
<path d="M20 23.6765V27.1682" stroke="#007AFF" stroke-width="2" stroke-linejoin="round"/>
<path d="M28.7916 30.6598H23.3916" stroke="#007AFF" stroke-width="2" stroke-linecap="round" stroke-linejoin="round"/>
<path d="M16.4749 30.6598H11.0833" stroke="#007AFF" stroke-width="2" stroke-linecap="round" stroke-linejoin="round"/>
<path d="M21.9084 29.0515H21.7751V28.5015C21.7751 28.1479 21.6346 27.8087 21.3845 27.5587C21.1345 27.3086 20.7954 27.1682 20.4417 27.1682H19.5584C19.2048 27.1682 18.8656 27.3086 18.6156 27.5587C18.3655 27.8087 18.2251 28.1479 18.2251 28.5015V29.0515H18.0917C17.6976 29.0537 17.3203 29.2118 17.0423 29.4913C16.7644 29.7708 16.6084 30.149 16.6084 30.5432V31.1182C16.6084 31.5116 16.7647 31.8888 17.0429 32.167C17.321 32.4452 17.6983 32.6015 18.0917 32.6015H21.9084C22.3018 32.6015 22.6791 32.4452 22.9573 32.167C23.2355 31.8888 23.3917 31.5116 23.3917 31.1182V30.5432C23.3917 30.149 23.2357 29.7708 22.9578 29.4913C22.6798 29.2118 22.3026 29.0537 21.9084 29.0515V29.0515Z" stroke="#007AFF" stroke-width="2" stroke-linecap="round" stroke-linejoin="round"/>
</svg>
