<svg width="32" height="32" viewBox="0 0 32 32" fill="none" xmlns="http://www.w3.org/2000/svg">
<path d="M29 16C29 23.1797 23.1797 29 16 29C8.8203 29 3 23.1797 3 16C3 8.8203 8.8203 3 16 3C23.1797 3 29 8.8203 29 16Z" fill="#2FCD66"/>
<path fill-rule="evenodd" clip-rule="evenodd" d="M22.1421 10.7071C21.7516 10.3166 21.1184 10.3166 20.7279 10.7071L14.364 17.0711L11.5355 14.2426C11.145 13.8521 10.5118 13.8521 10.1213 14.2426L8.70711 15.6568C8.31658 16.0474 8.31658 16.6805 8.70711 17.0711L12.2402 20.6042C12.241 20.605 12.2418 20.6058 12.2426 20.6066L13.6569 22.0208C13.9986 22.3625 14.526 22.4052 14.9142 22.149C14.9696 22.1123 15.0223 22.0696 15.0711 22.0208L16.4853 20.6066L23.5564 13.5355C23.9469 13.145 23.9469 12.5118 23.5564 12.1213L22.1421 10.7071Z" fill="white"/>
</svg>
